<svg width="20" height="20" viewBox="0 0 20 20" fill="none" xmlns="http://www.w3.org/2000/svg">
<path d="M5.17139 0.683464C4.43966 0.812838 3.60837 1.14125 2.98117 1.55425C1.97566 2.21108 1.12446 3.42521 0.780993 4.67915C0.705001 4.95989 0.666504 5.24945 0.666504 5.54029V10.0034V14.4133C0.666504 14.7393 0.711735 15.0638 0.800904 15.3775C1.06473 16.3179 1.53264 17.124 2.20464 17.7958C2.87664 18.4675 3.68304 18.9353 4.62384 19.199C4.93758 19.2881 5.26217 19.3333 5.58833 19.3333H9.99984H14.479C14.7603 19.3333 15.0403 19.2948 15.3111 19.2189C16.2768 18.9552 17.123 18.4725 17.795 17.7958C18.467 17.124 18.9349 16.3179 19.1988 15.3775C19.2879 15.0638 19.3332 14.7393 19.3332 14.4133V10.0034V5.59356C19.3332 5.2675 19.2879 4.94302 19.1988 4.62939C18.6711 2.75346 17.2923 1.36517 15.4007 0.807863C15.1036 0.718769 14.7952 0.673349 14.485 0.673029L10.1243 0.668535C7.47113 0.663559 5.24108 0.668535 5.17139 0.683464ZM15.779 3.79841C15.8985 3.8631 16.0677 4.01238 16.1474 4.12682C16.3465 4.41045 16.3614 4.84834 16.1773 5.14192C15.7641 5.80869 14.7934 5.75894 14.4749 5.05235C14.0965 4.22634 14.9826 3.38043 15.779 3.79841ZM11.1646 5.74898C12.4539 6.12218 13.3947 6.91336 13.9621 8.08768C14.3006 8.78432 14.3952 9.20727 14.3952 10.0034C14.3952 10.8195 14.3006 11.2375 13.9373 11.9689C13.4992 12.8546 12.8521 13.5015 11.9661 13.9394C11.2293 14.3026 10.8162 14.4022 9.99984 14.3972C9.20339 14.3972 8.7753 14.3026 8.08339 13.9643C6.91361 13.402 6.1321 12.4715 5.73886 11.1678C5.61939 10.7747 5.60446 10.6453 5.60446 10.0283C5.60446 9.26698 5.6841 8.849 5.9529 8.24691C6.25655 7.5453 6.88375 6.77901 7.4761 6.37595C7.99379 6.02266 8.76037 5.71913 9.36766 5.61961C9.84055 5.54497 10.6768 5.60468 11.1646 5.74898Z" fill="white" fill-opacity="0.7"/>
<path d="M9.41223 6.76909C8.99907 6.84373 8.44156 7.08257 8.09312 7.33137C7.52067 7.7394 7.12743 8.2768 6.88352 8.98339C6.75907 9.33668 6.74414 9.45113 6.74414 10.0035C6.74414 10.5409 6.76405 10.6802 6.87854 11.0235C7.20707 12.0137 7.9637 12.7651 8.97916 13.1184C9.33258 13.2428 9.44707 13.2577 9.99961 13.2577C10.5521 13.2577 10.6666 13.2428 11.0201 13.1184C12.0505 12.7601 12.7822 12.0287 13.1157 11.0186C13.2451 10.6255 13.2601 10.506 13.2601 9.97858C13.2551 9.4561 13.2352 9.33171 13.1157 8.98339C12.7623 7.96332 12.0505 7.24678 11.0549 6.90344C10.582 6.74421 9.8901 6.6845 9.41223 6.76909Z" fill="white" fill-opacity="0.7"/>
</svg>
