<svg width="176" height="40" viewBox="0 0 176 40" fill="none" xmlns="http://www.w3.org/2000/svg">
<g clip-path="url(#clip0_474_523)">
<path d="M21.4912 0.84077C18.535 1.63827 15.9637 4.36077 15.3175 7.34452C15.2212 7.85327 15.125 8.55452 15.125 8.91202V9.57202H15.9225C18.6037 9.57202 21.395 7.19327 22.4675 4.03077C22.7562 3.15077 22.99 1.50077 22.88 1.01952C22.7837 0.57952 22.5912 0.55202 21.4912 0.84077Z" fill="#915C46" fill-opacity="0.3"/>
<path d="M21.0511 10.0125C20.5699 10.0813 19.2499 10.4663 18.1086 10.8788C16.9536 11.305 15.8124 11.635 15.5236 11.635C15.2211 11.635 14.1761 11.3325 13.1586 10.9613C10.1886 9.86129 8.9099 9.76504 6.7374 10.4938C3.34115 11.6213 0.948647 14.5775 0.206147 18.5788C0.0273971 19.5413 -0.0138529 20.3388 0.0273971 22.1538C0.0961471 24.7113 0.439897 26.595 1.2649 28.9463C2.7224 33.1538 5.84365 37.65 8.04365 38.7363C8.8549 39.135 9.00615 39.1625 10.0649 39.1075C11.0136 39.0663 11.4399 38.9563 12.5811 38.4888C15.3036 37.375 16.6099 37.3613 19.1949 38.4063C20.7211 39.0113 20.9136 39.0525 22.0686 39.0663C23.1549 39.0663 23.4024 39.025 24.1174 38.6675C24.5574 38.4475 25.2862 37.9113 25.7124 37.485C26.6199 36.5775 28.2012 34.35 29.0812 32.7413C29.6312 31.7238 30.6624 29.29 30.6624 28.9738C30.6624 28.905 30.3324 28.6575 29.9199 28.4375C28.2699 27.5025 26.7299 25.66 26.1112 23.8725C25.7399 22.7863 25.6024 20.4625 25.8499 19.28C26.1249 17.9188 27.0187 16.365 28.1737 15.1963C28.7512 14.6188 29.3424 14.0825 29.4937 14C29.7412 13.8625 29.7412 13.835 29.3562 13.285C27.7749 11.0025 24.1312 9.57254 21.0511 10.0125Z" fill="#915C46" fill-opacity="0.3"/>
<path d="M133.196 10.1221C130.776 10.5484 129.043 11.4284 127.448 13.0096C125.716 14.7146 124.781 16.5846 124.203 19.4309C123.86 21.1634 123.846 27.8871 124.203 29.7434C125.152 34.8859 128.15 38.0346 132.907 38.9421C134.736 39.2859 137.83 39.1484 139.466 38.6671C141.652 38.0209 143.316 36.9896 144.485 35.5596C145.708 34.0746 146.575 31.6409 146.575 29.7159V28.9596H143.756H140.937V29.4959C140.937 29.7846 140.813 30.4446 140.648 30.9671C140.415 31.7371 140.222 32.0259 139.576 32.6721C138.503 33.7446 137.816 33.9784 135.643 33.9784C134.117 33.9784 133.925 33.9509 133.141 33.5796C131.532 32.8371 130.611 31.5034 130.116 29.2071C129.772 27.5984 129.772 21.4246 130.13 19.8846C130.776 16.9971 132.275 15.4159 134.708 15.0721C137.926 14.6184 140.635 16.5434 140.896 19.4859L140.978 20.2971H143.797H146.616L146.533 19.0734C146.327 16.2959 144.993 13.7384 142.945 12.2121C141.941 11.4696 140.236 10.6584 139.012 10.3284C137.995 10.0534 134.282 9.9296 133.196 10.1221Z" fill="#915C46" fill-opacity="0.3"/>
<path d="M36.4233 11.2497C36.5608 11.7309 38.2933 18.0972 40.287 25.4122L43.9033 38.7222H46.832C49.1008 38.7222 49.7608 38.6809 49.8158 38.5434C49.857 38.4472 50.9845 34.1709 52.332 29.0559C53.6795 23.9409 54.807 19.7884 54.8483 19.8297C54.8895 19.8709 56.0445 24.1197 57.4058 29.2759L59.8808 38.6534L62.8783 38.6947C64.5145 38.7084 65.862 38.6947 65.862 38.6534C65.862 38.5984 67.5395 32.4109 69.5745 24.9034C71.6233 17.3822 73.3283 11.0434 73.3695 10.8097L73.4658 10.3972H70.3583H67.2645L66.9895 11.5247C66.852 12.1572 65.8345 16.6122 64.7483 21.4247C63.662 26.2372 62.727 30.1422 62.6858 30.0872C62.6308 30.0322 61.517 25.5772 60.2108 20.2009L57.8183 10.3972H54.8483C51.8645 10.3972 51.8645 10.3972 51.7958 10.6997C50.957 14.3159 47.0933 30.0184 47.0383 30.0872C46.9833 30.1422 46.062 26.2784 44.9758 21.4934C43.8895 16.7222 42.8858 12.2672 42.7345 11.5934L42.4458 10.3972H39.3108H36.1758L36.4233 11.2497Z" fill="#915C46" fill-opacity="0.3"/>
<path d="M78.1685 24.3534C75.7485 32.0397 73.7548 38.4059 73.7273 38.5159C73.686 38.6947 74.0985 38.7222 76.6148 38.7222H79.5435L80.3548 35.8347C80.7948 34.2397 81.2485 32.6309 81.3585 32.2597L81.5648 31.5722H85.841H90.131L91.1073 35.1197L92.0698 38.6534L95.191 38.6947C97.1435 38.7084 98.3123 38.6809 98.3123 38.5984C98.3123 38.5159 96.3598 32.2597 93.981 24.6697C91.5885 17.0797 89.6085 10.7684 89.5673 10.6309C89.4985 10.4109 89.2098 10.3972 86.0335 10.3972H82.5685L78.1685 24.3534ZM87.381 21.6309C88.1785 24.5322 88.8248 26.9522 88.8248 27.0347C88.8248 27.1172 87.7523 27.1722 85.786 27.1722C83.421 27.1722 82.761 27.1309 82.816 26.9934C82.8435 26.9109 83.5448 24.4359 84.3698 21.5072C85.1948 18.5784 85.8823 16.2272 85.896 16.2822C85.9098 16.3372 86.5835 18.7434 87.381 21.6309Z" fill="#915C46" fill-opacity="0.3"/>
<path d="M98.1748 12.8722V15.3472H102.231H106.287V27.0347V38.7222H109.244H112.2V27.0347V15.3472H116.256H120.312V12.8722V10.3972H109.244H98.1748V12.8722Z" fill="#915C46" fill-opacity="0.3"/>
<path d="M152.487 24.5597V38.7222H155.444H158.4V32.6722V26.6222H163.969H169.537V32.6722V38.7222H172.425H175.312V24.5597V10.3972H172.425H169.537V16.0347V21.6722H163.969H158.4V16.0347V10.3972H155.444H152.487V24.5597Z" fill="#915C46" fill-opacity="0.3"/>
</g>
<defs>
<clipPath id="clip0_474_523">
<rect width="176" height="38.775" fill="white" transform="translate(0 0.359619)"/>
</clipPath>
</defs>
</svg>
