<svg width="254" height="35" viewBox="0 0 254 35" fill="none" xmlns="http://www.w3.org/2000/svg">
<g clip-path="url(#clip0_474_513)">
<path d="M17.036 1.03856C9.80081 2.33849 3.64323 7.58953 1.12889 14.5852C0.513131 16.2957 0 18.9639 0 20.4178V21.6322H4.07084H8.15879L8.36404 23.3769C9.08242 29.2437 12.4862 34.0842 17.703 36.5985C20.3713 37.8985 21.5002 38.1379 24.9724 38.1379C27.5894 38.1379 28.1367 38.0866 29.334 37.7445C35.3718 35.9999 39.7677 31.4672 41.2558 25.4636C41.7518 23.4624 41.786 19.6823 41.3242 17.5614C40.3834 13.1827 38.6901 10.0355 35.5771 6.90536C32.3957 3.68973 28.7867 1.75694 24.4764 1.02145C22.6804 0.696468 18.849 0.713573 17.036 1.03856ZM26.5289 13.5076C27.5551 13.6445 29.4708 14.5681 30.4287 15.4062C30.8392 15.7654 31.4892 16.518 31.8483 17.0825C34.0206 20.452 33.4904 24.8478 30.5997 27.5332C27.2644 30.612 22.4067 30.5436 19.2253 27.3793C15.1887 23.3427 16.2663 16.7404 21.3805 14.2089C22.6291 13.5932 24.2882 13.234 25.3145 13.3537C25.5539 13.3879 26.1013 13.4563 26.5289 13.5076Z" fill="#915C46" fill-opacity="0.3"/>
<path d="M64.4832 8.70115C60.3952 9.59058 57.2651 11.9681 55.4863 15.56C54.4087 17.7665 54.1521 18.8954 54.1521 21.5465C54.135 24.1464 54.4087 25.4292 55.4178 27.5331C56.6322 30.0645 58.5821 32.0144 61.1478 33.2801C63.3372 34.3577 64.3292 34.5459 67.4764 34.5288C69.9737 34.5288 70.3328 34.4774 71.5815 34.0669C74.5576 33.0749 77.1233 30.9539 78.4745 28.337C79.0732 27.2081 79.8771 25.2411 79.8771 24.9332C79.8771 24.9161 78.389 24.8819 76.5588 24.8819H73.2406L72.7275 25.7884C72.0433 27.0028 70.692 28.2001 69.4776 28.6449C68.6737 28.9527 68.229 29.004 66.9633 28.9527C65.612 28.9014 65.2871 28.8159 64.3463 28.3028C62.003 27.0541 60.7202 24.6595 60.7202 21.5294C60.7202 17.1165 63.7306 13.9009 67.6133 14.1403C69.8368 14.2772 71.8209 15.5771 72.8643 17.5612L73.2919 18.3822H76.593H79.8771L79.7745 17.9033C79.4153 16.4665 78.4745 14.5508 77.4141 13.1312C75.9602 11.1984 73.4458 9.55637 70.8973 8.8893C69.4776 8.4959 65.9028 8.41038 64.4832 8.70115Z" fill="#915C46" fill-opacity="0.3"/>
<path d="M92.278 8.71847C88.0874 9.625 84.5297 13.2853 83.2811 17.9719C82.768 19.8876 82.768 23.223 83.2811 25.1387C84.2731 28.8503 86.548 31.8265 89.6268 33.4172C91.303 34.2895 92.7056 34.6316 94.7581 34.6316C97.5803 34.6316 99.7868 33.8448 101.429 32.2712L102.284 31.4502V32.7843V34.1185H105.534H108.784V21.5467V8.97503H105.534H102.284V10.3605V11.763L101.395 10.8736C99.3934 8.87241 95.6304 7.98298 92.278 8.71847ZM98.5895 14.5853C101.07 15.6971 102.592 18.3311 102.609 21.5467C102.643 24.7624 100.899 27.7043 98.4185 28.628C97.1356 29.124 95.1173 29.124 93.8174 28.628C92.5003 28.1319 90.9781 26.6952 90.3281 25.3268C88.4979 21.4783 89.7979 16.5694 93.099 14.8589C94.7239 14.0037 97.033 13.9011 98.5895 14.5853Z" fill="#915C46" fill-opacity="0.3"/>
<path d="M157.531 8.71833C152.793 9.69328 149.184 12.9089 147.559 17.6126C147.063 19.0323 147.029 19.323 147.012 21.4611C147.012 24.1978 147.251 25.2583 148.38 27.5503C150.005 30.8685 153.204 33.4 156.881 34.2894C158.831 34.7512 161.619 34.7512 163.449 34.2894C168.905 32.8868 172.549 28.7134 173.284 23.0689C174.396 14.3628 166.237 6.93948 157.531 8.71833ZM162.714 14.7049C164.715 15.6969 166.22 17.9205 166.613 20.4348C167.126 23.7189 165.433 27.1569 162.662 28.4568C161.721 28.9015 161.345 28.987 160.233 28.987C158.489 28.987 157.309 28.5423 156.077 27.4134C154.384 25.874 153.597 23.9925 153.597 21.5637C153.597 18.0915 155.444 15.3206 158.437 14.3457C159.601 13.9694 161.533 14.1233 162.714 14.7049Z" fill="#915C46" fill-opacity="0.3"/>
<path d="M212.009 8.6329C208.537 9.33418 205.356 11.9169 203.696 15.3891C202.636 17.5956 202.431 18.6047 202.431 21.6322C202.431 23.9242 202.482 24.4544 202.824 25.5662C204.124 29.7055 206.826 32.6987 210.521 34.0842C211.428 34.4092 212.095 34.5289 213.651 34.5973C216.85 34.7171 218.971 34.0329 220.852 32.2711L221.673 31.5014V32.8185V34.1184H224.923H228.173V21.5467V8.97499H224.923H221.673V10.3091V11.6433L220.801 10.8223C219.723 9.8131 218.218 9.06051 216.627 8.71842C215.344 8.44475 213.138 8.41054 212.009 8.6329ZM218.321 14.7734C220.048 15.6115 221.348 17.3561 221.827 19.4258C222.084 20.5375 222.049 22.7953 221.759 23.9413C220.955 27.003 218.56 29.0042 215.669 29.0042C213.617 29.0213 212.214 28.4227 210.914 27.0201C207.853 23.7018 208.4 17.6469 211.992 15.1839C213.189 14.3629 214.164 14.1063 215.806 14.1576C216.952 14.2089 217.38 14.3115 218.321 14.7734Z" fill="#915C46" fill-opacity="0.3"/>
<path d="M114.429 21.5467V34.1184H117.679H120.928V26.5412C120.945 19.7849 120.963 19.0152 121.202 19.3231C123.374 22.2309 128.54 28.6279 128.625 28.5253C128.694 28.4569 130.353 26.3188 132.32 23.7703L135.895 19.1692L135.946 26.6438L135.98 34.1184H139.316H142.651V21.5467V8.97498H139.829H137.024L132.799 14.3629C130.473 17.3219 128.506 19.7507 128.454 19.7507C128.386 19.7507 126.453 17.3219 124.161 14.3629L119.988 8.99208L117.217 8.97498H114.429V21.5467Z" fill="#915C46" fill-opacity="0.3"/>
<path d="M177.715 21.5467V34.1184H180.965H184.215L184.249 28.8503L184.3 23.565L189.26 28.8503L194.221 34.1184H198.377C202.294 34.1184 202.55 34.1013 202.328 33.8276C202.191 33.6737 199.489 30.8173 196.324 27.4819C192.63 23.5992 190.594 21.3414 190.68 21.2217C190.748 21.102 193.04 18.3653 195.76 15.1497C198.497 11.934 200.737 9.23154 200.772 9.12892C200.806 9.0434 199.352 8.97498 197.009 8.97498H193.194L188.747 14.3458L184.3 19.7336L184.249 14.3458L184.215 8.97498H180.965H177.715V21.5467Z" fill="#915C46" fill-opacity="0.3"/>
<path d="M232.448 11.7972V14.6194H236.211H239.974V24.3689V34.1184H243.224H246.474V24.3689V14.6194H250.237H254V11.7972V8.97498H243.224H232.448V11.7972Z" fill="#915C46" fill-opacity="0.3"/>
</g>
<defs>
<clipPath id="clip0_474_513">
<rect width="254" height="34" fill="white" transform="translate(0 0.74707)"/>
</clipPath>
</defs>
</svg>
