<svg width="200" height="67" viewBox="0 0 200 67" fill="none" xmlns="http://www.w3.org/2000/svg">
<g clip-path="url(#clip0_474_540)">
<path d="M138.25 0.62199C105.675 1.99699 69.4376 9.03449 41.1876 19.497C38.7876 20.3845 33.6751 22.397 33.2751 22.6095C33.1751 22.6595 34.0001 22.6845 35.0876 22.647C36.6376 22.597 37.3126 22.6345 38.1376 22.797C40.1751 23.2095 41.4501 24.0595 42.1501 25.4595C42.5126 26.2095 42.5501 26.397 42.6001 27.7595L42.6501 29.247H40.1001H37.5376L37.4626 28.3095C37.4251 27.7345 37.3001 27.2095 37.1626 26.9595C36.7126 26.1845 35.6376 25.922 34.6376 26.322C33.6876 26.697 33.3251 28.2345 33.9626 29.1095C34.3626 29.647 35.2751 30.2595 37.0876 31.247C42.2626 34.022 43.2501 35.2595 43.0876 38.8095C42.9626 41.647 42.0126 43.147 39.7501 44.072C38.0376 44.772 34.8001 44.9345 32.7626 44.4345C29.6376 43.672 28.1376 41.647 28.1251 38.2095V37.122H30.9376H33.7501V38.3345C33.7501 39.697 33.9251 40.222 34.5376 40.672C35.0501 41.047 36.5751 41.047 37.0876 40.672C38.1501 39.897 38.1251 38.1095 37.0376 37.1095C36.5126 36.622 35.7501 36.1345 33.9376 35.122C29.8751 32.847 28.7251 31.672 28.3751 29.4345C28.2251 28.472 28.2876 27.5595 28.5751 26.497C28.8001 25.7095 29.1251 25.1345 29.7251 24.4595C29.9626 24.2095 30.1251 23.997 30.0876 23.997C29.9251 23.997 26.1126 25.8095 23.3751 27.197C17.4501 30.1845 12.9001 32.997 8.9126 36.122C7.1626 37.497 3.9001 40.747 2.8376 42.1845C1.7876 43.5845 0.575098 45.997 0.250098 47.297C-0.0624019 48.522 -0.087402 50.6095 0.187598 51.6845C1.4501 56.5845 6.9251 60.4095 16.5376 63.122C30.1501 66.972 51.8001 67.972 75.7501 65.8595C107.063 63.097 139.738 55.697 164.25 45.8095C165.663 45.2345 167.125 44.6345 167.5 44.447L168.188 44.1345L167.5 44.222C167.125 44.272 166.113 44.297 165.25 44.297C161.588 44.247 159.275 42.897 158.463 40.322C158.2 39.4595 158.188 39.297 158.188 33.622C158.188 28.447 158.213 27.722 158.413 27.0095C159 24.8595 160.325 23.622 162.725 22.972C164.1 22.6095 167.025 22.6095 168.4 22.972C171.45 23.797 172.863 25.6595 172.875 28.897V29.872H170.263H167.65L167.6 28.747C167.563 27.8595 167.488 27.547 167.288 27.272C166.875 26.722 166.275 26.4345 165.5 26.4345C164.663 26.4345 164.063 26.7595 163.688 27.372C163.45 27.797 163.438 28.0345 163.4 33.247C163.375 36.2345 163.4 38.872 163.438 39.097C163.738 40.7595 166.413 41.147 167.388 39.672C167.588 39.3595 167.625 39.0595 167.625 37.3345V35.372H166.563H165.488L165.525 33.8345L165.563 32.3095L169.225 32.272L172.875 32.247V35.6595C172.875 37.5845 172.813 39.397 172.738 39.8095C172.563 40.772 172.113 41.6345 171.413 42.3845L170.838 42.997L172.013 42.472C174.113 41.522 179.638 38.697 181.788 37.4595C191.95 31.6095 197.913 25.9595 199.625 20.5595C200.05 19.222 200.113 16.872 199.763 15.572C198.338 10.3845 192.25 6.44699 181.513 3.74699C175.663 2.28449 169.213 1.39699 159.75 0.73449C157.325 0.57199 141.525 0.48449 138.25 0.62199ZM106.075 23.0595C108.725 23.8345 109.988 25.6345 109.85 28.497L109.813 29.3095H107.25H104.688L104.625 28.2095C104.563 27.197 104.525 27.097 104.163 26.722C103.825 26.3845 103.65 26.322 103.025 26.272C102 26.197 101.425 26.4845 101.1 27.222C100.913 27.647 100.875 27.9095 100.938 28.3595C101.063 29.247 101.888 29.9595 104.25 31.2345C107.675 33.0845 109.2 34.2845 109.85 35.6345C110.463 36.897 110.475 39.5595 109.875 41.1595C109.325 42.6345 107.85 43.8095 105.875 44.3345C104.713 44.647 101.15 44.647 100 44.322C97.5501 43.647 96.0751 42.2345 95.6376 40.147C95.5626 39.7845 95.5001 38.947 95.5001 38.3095V37.122H98.2501H101V38.272C101 39.622 101.2 40.147 101.863 40.5845C102.388 40.9345 103.55 40.9845 104.2 40.672C105.025 40.2845 105.375 38.8595 104.888 37.897C104.438 37.0345 103.85 36.5845 101.113 35.047C98.7376 33.722 97.8751 33.1095 96.9751 32.1345C96.1126 31.2095 95.7501 30.322 95.6626 28.9345C95.4376 25.247 97.6251 23.0345 101.738 22.7595C103.288 22.6595 105.15 22.7845 106.075 23.0595ZM61.4501 33.5595C62.4876 39.197 63.3126 43.847 63.2876 43.897C63.2376 43.997 57.7501 44.047 57.7501 43.9595C57.7501 43.847 55.1251 26.0095 55.0501 25.622C55.0001 25.3845 54.9501 25.2345 54.9251 25.3095C54.9001 25.372 54.2501 29.572 53.5001 34.6095C52.7376 39.6595 52.0751 43.847 52.0501 43.897C51.9751 44.022 46.5001 44.0345 46.5001 43.897C46.5001 43.847 47.3501 39.1845 48.4001 33.522L50.3001 23.247L54.9251 23.272L59.5501 23.3095L61.4501 33.5595ZM76.4251 23.5845C76.4626 23.7845 77.0376 27.2845 77.6876 31.372C78.3501 35.4595 78.9001 38.8595 78.9251 38.9345C78.9501 38.997 79.0001 38.8845 79.0376 38.6845C79.1626 38.1345 81.5001 23.572 81.5001 23.397C81.5001 23.2845 82.5251 23.247 85.7501 23.247C88.0876 23.247 90.0001 23.2595 90.0001 23.272C90.0501 23.5595 90.4626 43.8345 90.4126 43.897C90.3876 43.9595 89.2126 43.997 87.8001 43.997H85.2501L85.2376 39.4595C85.2251 36.972 85.1751 32.772 85.1376 30.122L85.0626 25.322L83.5751 33.3095C82.7626 37.7095 81.9876 41.9095 81.8501 42.6595L81.6001 43.997L78.9501 43.972L76.3126 43.9345L74.6126 34.8095C73.6876 29.7845 72.8876 25.597 72.8501 25.497C72.8001 25.397 72.7626 28.122 72.7626 31.5595C72.7501 34.997 72.7126 39.197 72.6626 40.897L72.5876 43.997H70.0376H67.5001V42.022C67.5001 40.947 67.5876 36.6595 67.6876 32.497C67.7876 28.3345 67.8751 24.5595 67.8751 24.0845V23.247H72.1126H76.3501L76.4251 23.5845ZM120.375 31.247C120.375 39.9095 120.363 39.7345 121.063 40.372C121.363 40.647 121.5 40.6845 122.375 40.6845C123.25 40.6845 123.388 40.647 123.688 40.372C124.4 39.7095 124.375 40.0595 124.375 31.3095V23.247H127H129.625V31.472C129.625 40.4345 129.625 40.472 128.913 41.7845C128.525 42.497 127.688 43.272 126.875 43.6845C124.925 44.672 121.375 44.847 118.925 44.072C117.613 43.6595 116.7 43.0095 116.038 42.0345C115.125 40.672 115.125 40.647 115.125 31.3845V23.247H117.75H120.375V31.247ZM143.238 23.647C143.3 23.872 144.35 27.4595 145.563 31.622C146.788 35.7845 147.8 39.2095 147.838 39.247C147.925 39.322 147.775 27.522 147.675 25.022L147.588 23.247H150.238H152.875L152.85 33.4595L152.813 43.6845L149.113 43.722L145.425 43.747L142.875 35.372C141.475 30.772 140.313 27.022 140.275 27.047C140.25 27.0845 140.288 30.3845 140.363 34.397C140.438 38.4095 140.5 42.147 140.5 42.7095V43.747H137.938H135.375V33.497V23.247H139.238H143.1L143.238 23.647Z" fill="#915C46" fill-opacity="0.3"/>
</g>
<defs>
<clipPath id="clip0_474_540">
<rect width="200" height="66.5" fill="white" transform="translate(0 0.49707)"/>
</clipPath>
</defs>
</svg>
