<svg width="370" height="88" viewBox="0 0 370 88" fill="none" xmlns="http://www.w3.org/2000/svg">
<path d="M46.5765 5.44132C45.6189 6.44249 45.5318 6.44249 44.313 5.83308C43.573 5.44132 42.9636 5.22367 42.8765 5.31073C42.833 5.39779 42.4412 6.09426 42.0494 6.83426C41.44 8.09661 41.1789 8.2272 40.0471 7.96602L38.7412 7.70485L39.6118 9.62014C40.0906 10.6648 40.4824 11.8837 40.4824 12.2754C40.4824 13.2766 40.5694 13.2766 42.7894 12.1013C45.4447 10.6648 50.7989 10.7084 53.4542 12.1013C54.4989 12.6672 55.413 13.059 55.4565 12.9719C55.5 12.8848 55.9353 11.8837 56.4142 10.6648C56.8495 9.48955 57.3283 8.31426 57.4153 8.09661C57.5024 7.87897 56.98 7.83544 56.1965 7.96602C55.0212 8.2272 54.76 8.09661 54.1506 6.83426C53.7589 6.09426 53.3671 5.39779 53.3236 5.31073C53.2365 5.22367 52.6271 5.44132 51.8871 5.83308C50.6683 6.44249 50.5812 6.44249 49.6236 5.44132C49.0577 4.83191 48.3612 4.35308 48.1 4.35308C47.8389 4.35308 47.1424 4.83191 46.5765 5.44132ZM49.493 7.05191C50.32 7.83544 50.6683 7.92249 51.5824 7.4872C52.54 7.05191 52.7142 7.09544 53.3236 8.27073C53.6718 8.92367 54.2377 9.57661 54.6294 9.66367C55.0212 9.75073 55.1518 10.0119 54.8906 10.3601C54.5859 10.839 54.1506 10.839 52.2353 10.2731C49.3189 9.40249 47.4471 9.40249 44.1824 10.2296C42.1365 10.7954 41.5706 10.7954 41.3094 10.3601C41.0918 10.0119 41.1789 9.75073 41.5706 9.66367C41.9624 9.57661 42.5283 8.92367 42.8765 8.27073C43.4859 7.09544 43.66 7.05191 44.6612 7.4872C45.5753 7.92249 45.88 7.83544 46.7071 7.05191C47.8824 5.87661 48.2306 5.87661 49.493 7.05191Z" fill="#915C46" fill-opacity="0.3"/>
<path d="M44.0514 12.7108C42.0055 13.4073 40.482 14.9743 40.482 16.4108C40.482 17.0637 40.7867 19.1531 41.1349 21.0249C41.4832 22.8967 41.7879 24.812 41.7879 25.2037C41.7879 25.6826 40.5691 26.6402 38.4361 27.9026C34.3879 30.2096 33.5173 30.9931 33.5173 32.4296C33.5173 33.8226 33.7785 33.779 35.2585 32.212C36.8691 30.4708 38.0443 30.5579 40.0032 32.5167L41.5702 34.1708L36.4773 34.3014C33.6479 34.3449 31.3408 34.5626 31.3408 34.7802C31.3408 34.9979 31.6455 35.8684 31.9938 36.6955C32.5161 38.0014 32.6467 40.7437 32.6467 51.452C32.6902 65.2508 32.8643 66.8178 34.6926 68.8637C35.9985 70.3437 38.9149 71.3884 42.6585 71.6931C45.0526 71.8673 46.5326 72.2155 47.142 72.7378C48.0561 73.4343 48.1432 73.4343 49.1879 72.6943C49.8843 72.2155 51.5385 71.8673 53.6714 71.6931C58.6338 71.2578 61.0714 70.0826 62.6385 67.2531C63.2479 66.1214 63.3785 63.8143 63.5526 51.5826C63.7267 38.959 63.8573 37.0437 64.5538 35.8249L65.2938 34.432L59.9832 34.3014L54.6291 34.1708L56.2396 32.5167C58.1549 30.5579 59.2867 30.4708 61.0279 32.212C62.5949 33.779 62.682 33.8226 62.682 32.4296C62.682 30.9931 61.7243 30.1226 57.7632 27.859C55.8914 26.8143 54.4114 25.7261 54.4114 25.4214C54.4114 25.1167 54.7161 23.332 55.0643 21.4602C56.1526 15.8449 56.022 15.0179 53.9326 13.6249C52.4961 12.6673 51.6255 12.4496 48.8396 12.3626C47.0114 12.2755 44.8349 12.4496 44.0514 12.7108ZM52.4526 14.539C53.2796 14.8873 53.9761 15.3661 53.9761 15.5837C53.9761 15.8449 52.6702 16.5414 51.1032 17.1508L48.2302 18.3261L45.2267 17.1508C43.5726 16.4979 42.2232 15.8449 42.2232 15.6708C42.2232 15.4967 42.8761 15.0179 43.6596 14.6261C45.4443 13.7555 50.4502 13.712 52.4526 14.539ZM47.4467 23.5496V27.859L45.5314 26.9014C43.6596 26.0308 43.6161 25.9437 43.1808 23.1143C42.8761 21.5473 42.5714 19.5884 42.3973 18.8484L42.1361 17.4555L44.7914 18.3261L47.4467 19.2402V23.5496ZM53.3232 21.8084C52.9314 24.072 52.5832 25.9002 52.5396 25.9437C52.4961 25.9873 51.6255 26.4226 50.6243 26.9449L48.7526 27.859V23.5931V19.3273L51.2773 18.4131C52.6267 17.9343 53.802 17.5861 53.8891 17.6296C53.9761 17.6732 53.7149 19.5884 53.3232 21.8084ZM45.7926 28.6861L48.0126 29.992L50.6679 28.6426L53.3232 27.2931L55.1514 28.2943C57.2408 29.3826 57.4585 29.8614 56.1526 30.2531C55.6302 30.4273 54.542 31.6026 53.6714 32.9084C51.6691 35.912 49.1008 37.3049 46.8373 36.5649C46.0102 36.3037 44.6608 35.3026 43.8773 34.3449C43.0938 33.3437 41.7008 31.8202 40.8302 30.9496L39.2196 29.339L40.8302 28.3814C42.9196 27.1626 43.1373 27.1626 45.7926 28.6861ZM44.4432 37.0437C45.1396 37.5226 45.7055 38.2626 45.7055 38.6979C45.7055 39.4379 47.2726 41.832 49.1008 43.8343C49.9279 44.7484 49.9279 44.8355 49.2314 45.4449C48.6655 45.9673 47.5773 46.1414 45.2267 46.0978C43.442 46.0978 42.2667 45.9673 42.5714 45.8367C43.3114 45.532 43.2243 44.8355 42.4408 44.8355C41.6573 44.8355 41.6138 44.3131 42.3973 41.7884C42.8761 40.0908 42.8761 39.6555 42.3102 38.3931L41.6138 37.0002L40.3949 38.1755C39.3502 39.1767 39.1761 39.6555 39.1761 41.832C39.1761 44.0955 39.0891 44.3131 38.3491 44.0955C37.5655 43.9214 37.522 44.052 37.6526 45.7061C37.7396 46.7073 38.1314 47.8826 38.4796 48.2743C38.8714 48.7096 39.1761 49.2755 39.1761 49.5802C39.1761 49.972 39.5679 50.059 40.482 49.8414C41.222 49.6673 43.6596 49.8849 45.9232 50.2767L50.0149 51.0167L52.2349 49.4061C54.542 47.7084 54.542 47.7084 55.0208 50.3637L55.282 51.8002H44.8349H34.3879V44.9226C34.3879 41.179 34.2573 37.6531 34.1267 37.0873C33.8655 36.1296 33.9091 36.1296 38.5232 36.1296C42.5279 36.1296 43.3549 36.2602 44.4432 37.0437ZM62.0726 37.479C61.942 38.219 61.8114 40.7002 61.8114 42.9202C61.8114 47.099 61.3761 48.0131 60.4185 45.9237C60.1573 45.3578 59.5914 44.7484 59.1126 44.6178C58.6773 44.4437 58.0243 43.8343 57.6761 43.1814C57.0667 42.0496 57.0667 42.0061 57.0232 43.0073C57.0232 44.052 60.4185 47.8826 61.3326 47.8826C61.5938 47.8826 61.8114 48.7096 61.8114 49.8414V51.8002H59.1996C57.0232 51.8002 56.5443 51.6696 56.1526 50.8861C55.8914 50.4073 55.7173 49.5802 55.8043 49.0578C55.8914 48.4484 55.5432 47.7955 54.9773 47.3167C54.3679 46.8378 53.9761 46.0543 53.9761 45.3143C53.9761 44.6614 53.5843 43.7473 53.1055 43.312C52.6267 42.8767 52.2349 42.1367 52.2349 41.7014C52.2349 41.2226 52.0608 41.0049 51.7996 41.1355C51.582 41.2661 51.3643 41.8755 51.3643 42.4414C51.3643 43.0073 51.1902 43.5731 50.9291 43.7473C50.4938 44.0084 48.7526 42.4849 48.7526 41.7884C48.7526 41.5708 48.2738 40.9179 47.6643 40.3084C46.1408 38.7849 46.2714 38.4367 48.4914 38.219C49.5796 38.0884 50.9726 37.5661 51.6691 37.0873C52.7138 36.2602 53.4973 36.1731 57.6326 36.1296H62.3773L62.0726 37.479ZM41.3526 42.0061C40.6561 44.9226 40.0467 45.0967 40.0467 42.3979C40.0467 40.0473 40.7432 38.3931 41.4832 39.1331C41.7879 39.4379 41.7879 40.2649 41.3526 42.0061ZM53.1491 45.8367C53.3667 47.2731 53.2796 47.4908 51.582 48.7096L49.7538 50.0155L46.0973 49.3626C44.0949 48.9708 42.3973 48.6226 42.3102 48.5355C42.2667 48.492 42.3102 48.1002 42.4843 47.7084C42.702 47.1426 43.3985 47.012 45.8796 47.012C48.8832 47.012 49.0573 46.9684 50.4938 45.4884C51.3208 44.6614 52.1914 44.0084 52.4526 44.0955C52.6702 44.1826 53.0185 44.9661 53.1491 45.8367ZM40.9173 46.1849C41.1785 46.6637 41.3526 47.4473 41.2655 47.8826C41.1349 48.6226 41.0043 48.6661 40.0467 48.1873C38.8279 47.5778 38.3926 46.1849 39.2632 45.6626C40.1338 45.0967 40.3949 45.1837 40.9173 46.1849ZM61.8114 58.0684C61.8114 64.859 61.5938 65.9037 59.7655 67.732C57.9373 69.5602 56.8926 69.6908 57.1102 68.0367C57.1973 67.2096 57.5455 66.7743 58.2855 66.6002C60.2008 66.1649 60.3314 65.2073 58.8514 63.0308C56.8055 60.0273 56.5879 59.9402 52.0173 59.9837C48.7091 60.0273 47.9691 59.9402 48.1432 59.4178C48.4914 58.5473 47.6643 57.2849 45.7055 55.7178C44.4432 54.7167 43.7902 54.412 43.442 54.7602C43.1373 55.0649 42.3973 54.9778 41.0914 54.412C40.0467 53.9331 39.1761 53.672 39.1761 53.8026C39.1761 53.9331 39.6985 54.6731 40.3079 55.5002C41.222 56.719 41.3526 57.1108 40.9173 57.8943C40.2643 59.1131 40.6561 60.0708 41.7879 60.0708C42.2667 60.0708 42.6585 60.2449 42.6585 60.419C42.6585 60.6367 42.1361 60.7237 41.4832 60.6367C40.6126 60.5061 39.8291 60.8108 38.7843 61.7249C37.3479 62.9002 37.3043 63.0743 37.6961 64.4673C37.9573 65.2943 38.3926 65.9037 38.6538 65.8602C38.9149 65.7731 39.0455 65.9908 38.9149 66.2955C38.8279 66.6002 39.1326 67.4273 39.6549 68.0367L40.5691 69.212L41.3961 68.1673C41.8314 67.6014 42.2232 66.7743 42.2232 66.3826C42.2232 65.7731 42.4843 65.6861 43.7467 65.9037C44.6173 66.0778 45.5314 66.0778 45.7926 65.9037C46.6196 65.3814 51.1032 65.7296 51.7561 66.3826C52.4961 67.1226 51.9738 69.6473 51.0161 69.9084C50.5808 70.039 49.7973 70.3873 49.1443 70.692C48.2302 71.1708 47.882 71.1273 47.142 70.6484C46.6196 70.3002 44.6608 69.9084 42.7891 69.7778C35.7373 69.2555 34.4314 67.5143 34.3879 58.4167V52.6708H48.0996H61.8114V58.0684ZM45.5314 57.0673C46.0973 57.5896 46.5761 58.4602 46.5761 59.0261C46.5761 60.5496 47.4902 60.8978 52.0173 61.0284L56.3267 61.159L57.8067 63.0743C58.6338 64.2061 59.069 65.1637 58.8514 65.3814C58.1985 66.0343 57.1973 65.3378 56.4573 63.7708C55.5867 61.9426 54.6291 61.7249 55.0643 63.4226C55.1949 64.119 55.6302 64.9461 55.9785 65.3378C56.3267 65.7296 56.5008 66.2955 56.4138 66.6437C56.3267 66.992 56.1091 67.7755 55.9785 68.4284C55.5867 70.2131 54.6726 69.9955 55.0208 68.2108C55.282 66.9049 55.1079 66.6002 53.5408 65.3378C52.0608 64.1626 51.6691 64.032 50.8855 64.4673C50.3196 64.772 49.1443 64.859 47.9691 64.6849C46.8808 64.5543 45.7926 64.5978 45.4879 64.859C45.1832 65.1202 44.4867 65.1202 43.5291 64.859C41.8749 64.3802 41.2655 64.7284 41.1349 66.252C41.0914 66.7743 40.8302 67.2967 40.5691 67.3837C39.8291 67.6014 39.9161 65.9473 40.6996 64.4237C41.2655 63.3355 41.5702 63.1614 42.5714 63.379C43.7467 63.5967 43.7467 63.5967 43.7902 61.4202C43.7902 59.2873 43.7902 59.2002 42.5714 59.2002C41.1785 59.2002 41.0479 58.939 42.0491 57.8073C42.6585 57.1978 42.6585 56.8931 42.2232 56.4143C41.3526 55.3261 44.3126 55.9355 45.5314 57.0673ZM41.962 61.6378C42.3538 61.7684 42.6585 62.1167 42.6585 62.3343C42.6585 62.5955 42.3538 62.639 41.962 62.5084C41.0914 62.1602 39.6114 62.9437 39.6114 63.7708C39.6114 64.6414 38.8714 64.9461 38.5667 64.1626C38.4361 63.7708 38.7408 63.0743 39.3938 62.4214C40.482 61.3331 40.8302 61.2026 41.962 61.6378ZM54.1938 67.8626C53.8891 69.0378 53.2361 69.952 52.9749 69.6037C52.8879 69.5167 52.8879 68.6896 52.9749 67.819C53.1491 66.6437 53.3667 66.2955 53.8455 66.4696C54.2808 66.6437 54.4114 67.079 54.1938 67.8626Z" fill="#915C46" fill-opacity="0.3"/>
<path d="M44.2263 21.1117C44.4875 21.7211 45.7498 22.6353 46.3157 22.6353C47.0557 22.6353 46.4028 21.4164 45.4887 20.9811C44.0522 20.3282 43.9216 20.3282 44.2263 21.1117Z" fill="#915C46" fill-opacity="0.3"/>
<path d="M50.6248 20.9811C49.5366 21.5035 49.2754 22.6353 50.1895 22.6353C50.7989 22.6353 52.2354 21.2858 52.2354 20.7635C52.2354 20.3717 51.7566 20.4153 50.6248 20.9811Z" fill="#915C46" fill-opacity="0.3"/>
<path d="M46.1416 31.559C46.1416 31.9073 46.4463 32.212 46.8381 32.212C47.404 32.212 47.491 32.5602 47.3604 33.9532C47.2298 35.5202 47.3169 35.6943 48.1875 35.6943C49.1016 35.6943 49.1887 35.5637 48.9275 33.9532C48.6663 32.3861 48.7098 32.212 49.5804 32.212C50.1028 32.212 50.4945 31.9508 50.4945 31.559C50.4945 31.0802 49.9722 30.9061 48.3181 30.9061C46.664 30.9061 46.1416 31.0802 46.1416 31.559Z" fill="#915C46" fill-opacity="0.3"/>
<path d="M32.2118 13.4508C29.1647 14.0602 26.8141 16.2802 26.2918 18.9355C25.8565 21.3731 23.68 20.7637 22.1565 17.7166L21.1988 15.9319L19.98 17.4119C17.76 20.0672 17.8035 23.2884 20.1106 25.9437C20.8506 26.7708 21.3729 27.5108 21.2859 27.5978C21.1988 27.6413 20.3718 28.1637 19.4576 28.686C18.5871 29.2519 16.7153 30.9931 15.3659 32.5602C11.8835 36.6955 9.18471 38.306 5.83294 38.306C4.09177 38.306 3.96118 38.8719 5.18 41.3096C6.26824 43.3555 7.92236 44.4872 10.0118 44.5743L11.6224 44.6178L11.2306 46.359C10.7082 48.7531 9.14118 51.0166 7.22589 52.0178C6.3553 52.4966 5.65883 53.019 5.65883 53.2366C5.65883 53.4543 6.3553 54.3249 7.18236 55.1519C8.66236 56.6319 8.79294 56.6755 11.4918 56.5013L14.2341 56.3272L15.0176 59.5484C15.7141 62.2472 15.7576 63.0308 15.3224 64.6849C15.0176 65.7731 14.8871 66.8613 15.0176 67.079C15.3659 67.6013 19.4576 67.6013 20.4588 67.0355C21.1553 66.6437 21.4165 66.7743 21.9388 67.7755C22.6353 69.1684 24.1153 70.6049 25.5953 71.3449C26.9447 72.0413 31.6459 72.7813 32.6471 72.4766C33.4306 72.2155 33.4306 72.1719 32.6471 70.8225C32.2118 70.039 31.6024 68.0802 31.3412 66.3825C31.08 64.7284 30.5141 62.7696 30.0788 62.0731C29.2953 60.8543 29.2953 60.8108 30.2965 59.2872C30.9059 58.4602 31.3412 57.1543 31.3412 56.3272C31.3412 54.9343 31.2541 54.8472 29.8176 54.8472C27.9024 54.8472 25.7259 53.9766 24.6376 52.7143L23.8106 51.8002H26.2047C28.5553 51.8002 31.2976 50.5813 31.6024 49.406C31.6894 49.1449 30.9929 48.4484 30.0353 47.7955C27.5976 46.0978 26.3788 43.5296 26.6835 40.6131C27.1188 36.3908 29.9482 32.5602 36.1294 27.9896C40.3518 24.8119 40.7871 22.2872 37.3047 20.3719C34.9976 19.1096 34.7365 17.7166 36.3035 15.366C36.9129 14.4955 37.3482 13.7119 37.3047 13.6684C36.9129 13.3637 33.4306 13.2331 32.2118 13.4508ZM34.1271 16.4543C33.2129 18.6743 33.8224 20.1543 36.0859 21.286C37.0435 21.8084 37.9576 22.4178 38.0882 22.6355C38.7412 23.7237 37.7835 25.2037 35.3894 26.7708C31.8635 29.1213 27.7718 33.3437 26.5529 35.9119C25.3341 38.4802 24.9424 42.3543 25.6388 44.5308C25.9435 45.4013 26.9447 46.8813 27.9024 47.839C29.5565 49.4931 29.6 49.5802 28.7729 50.0155C27.5541 50.7119 24.5941 50.5813 22.7659 49.8413C21.9388 49.4931 21.1553 49.1884 21.0682 49.1884C20.6329 49.1884 22.3306 52.5402 23.2012 53.4543C24.5071 54.8908 27.1188 56.1531 28.7294 56.1531C29.5565 56.1531 30.0353 56.3708 30.0353 56.7625C30.0353 57.7202 28.3812 59.5049 27.1624 59.8096L26.0306 60.1143L27.1624 60.9849C28.6859 62.2037 29.5565 63.9884 30.0353 66.9049C30.2529 68.2108 30.5576 69.6472 30.6882 70.126C30.9059 70.8225 30.7318 70.9531 29.5565 70.9531C26.2918 70.9531 23.0271 68.2543 22.3741 64.9896L22.1129 63.6837L20.8941 64.946C20.0235 65.8166 19.24 66.1649 18.1082 66.1649H16.5847L16.8459 63.8578C17.02 62.3343 16.8459 60.6802 16.3671 59.1131C15.9753 57.7637 15.6706 56.066 15.6706 55.326C15.6706 53.8025 15.4965 53.759 13.9294 54.6296C12.4059 55.5002 9.88118 55.4566 8.70589 54.499L7.74824 53.7155L9.70706 51.8002C11.6659 49.8413 13.0588 46.5766 13.0588 44.0084C13.0588 42.9202 12.9718 42.8766 10.8824 43.0072C8.96706 43.1813 8.5753 43.0508 7.4 41.8755C6.70353 41.1355 6.09412 40.3519 6.09412 40.1343C6.09412 39.9166 6.92118 39.5684 7.96589 39.4378C10.7518 38.959 12.9282 37.4355 16.6718 33.3872C19.1094 30.6449 20.5459 29.4696 21.9824 28.9037C23.0706 28.5119 23.9412 28.0331 23.9412 27.9025C23.9412 27.7284 23.0706 26.7708 22.0259 25.726C19.8059 23.5496 19.3706 22.2872 20.0235 20.1978L20.5459 18.6743L22.2435 20.2413C23.5929 21.4602 24.2894 21.7649 25.6824 21.7649C27.2929 21.7649 27.4235 21.6778 27.4235 20.546C27.4235 17.8908 30.6012 14.8002 33.3871 14.8002H34.7365L34.1271 16.4543Z" fill="#915C46" fill-opacity="0.3"/>
<path d="M25.6827 25.0295C26.2921 25.3777 27.6415 25.6389 28.7298 25.6824H30.6886L28.4251 26.9883C25.0298 28.9471 20.8074 33.126 19.2404 36.0424C18.5004 37.4354 17.4992 40.2648 17.0204 42.3107C16.0627 46.3589 15.4968 47.9259 14.2345 49.7107C13.7992 50.4071 13.6251 50.9295 13.8427 50.9295C14.3215 50.9295 16.5415 47.7083 16.5851 46.9248C16.5851 46.6201 16.9768 47.7518 17.4121 49.4495C18.4568 53.4977 19.7627 56.0224 22.8968 60.1142C24.3333 61.9424 25.6827 63.8142 25.9874 64.2495C26.5098 65.033 26.5098 65.033 26.2486 64.2059C26.118 63.7271 24.8557 61.7683 23.4627 59.853C19.371 54.1071 17.8474 50.1459 17.8474 45.2707C17.8474 42.833 18.6745 39.046 19.5015 37.6095C19.8933 36.913 19.9804 37.2177 20.0239 39.0895C20.0239 40.526 20.3721 42.0495 20.8945 43.0942C21.3733 44.0518 21.8521 44.8354 21.9392 44.8354C21.9827 44.8354 21.678 43.7471 21.2427 42.3977C20.2851 39.6118 20.4592 37.3918 21.8086 34.7801C23.4192 31.5589 25.3345 29.9483 33.3439 24.9424C34.0404 24.5071 33.8662 24.5071 32.4298 24.7248C30.1662 25.1165 28.0333 25.1165 26.118 24.7248C24.638 24.4201 24.638 24.4201 25.6827 25.0295Z" fill="#915C46" fill-opacity="0.3"/>
<path d="M60.4185 13.3638C59.1997 13.5379 58.8079 14.4955 59.6785 15.0614C60.4185 15.4967 61.4197 18.152 61.1149 18.892C60.9844 19.2402 60.5055 19.6755 60.0267 19.8061C58.3726 20.3285 56.5879 22.2437 56.5879 23.4626C56.5879 25.0732 57.5455 26.292 60.4185 28.2508C67.862 33.3002 71.3008 40.0473 68.8632 44.8355C68.4714 45.6626 67.2961 46.9249 66.2949 47.6649C65.2938 48.3614 64.5102 49.1449 64.5973 49.4061C64.902 50.5379 67.6444 51.8002 69.9079 51.8002C71.7797 51.8002 72.1714 51.9308 71.9973 52.4532C71.6055 53.3673 68.2973 54.8473 66.4691 54.8473C64.9455 54.8473 64.8585 54.9343 64.8585 56.3273C64.8585 57.1108 65.2938 58.4167 65.8597 59.2437C66.8608 60.7237 66.8608 60.7237 66.0773 62.3343C65.5985 63.2049 65.0326 65.2508 64.8149 66.8179C64.5973 68.472 64.0314 70.3002 63.5526 70.9532C62.682 72.172 62.682 72.2155 63.5091 72.4767C64.6408 72.8249 69.2549 72.0414 70.8655 71.2143C72.2149 70.5179 74.8702 67.732 74.8702 66.992C74.8702 66.7308 75.1749 66.7308 75.6973 67.0355C76.6114 67.5143 80.0502 67.6449 81.0949 67.2532C81.6173 67.0355 81.6173 66.7308 81.0514 65.0332C80.442 63.2049 80.4855 62.7261 81.182 59.679L82.0091 56.3273L84.7514 56.5014C87.4067 56.6755 87.5373 56.632 89.0173 55.152C89.8444 54.3249 90.5408 53.4108 90.5408 53.1496C90.5408 52.932 89.8444 52.3661 89.0173 51.9743C88.0597 51.539 87.0149 50.4943 86.362 49.3626C85.1867 47.3167 84.4032 44.052 85.2302 44.5743C85.4914 44.7485 86.5361 44.6614 87.4502 44.4002C89.3655 43.8779 91.1938 41.919 91.8467 39.6555L92.2385 38.3061H90.4102C87.3197 38.3061 84.5773 36.652 80.8773 32.5602C79.0055 30.5143 76.9161 28.599 76.1761 28.2943C74.6091 27.6414 74.5655 27.3802 75.7844 26.292C77.3514 24.899 78.0479 23.0708 77.7867 21.0249C77.6126 19.2838 75.9149 16.1061 75.2185 16.1061C75.0444 16.1061 74.6091 16.759 74.2608 17.5861C73.2161 20.0673 70.082 21.5473 70.082 19.5449C70.082 17.8038 68.1667 15.192 66.1644 14.1473C64.8585 13.4943 62.0726 13.1461 60.4185 13.3638ZM65.6855 15.5838C67.3832 16.4979 68.7761 18.7614 68.7761 20.5461C68.7761 21.6779 68.9067 21.7649 70.4302 21.7649C72.0844 21.7649 73.6514 20.9379 74.9573 19.3708C75.6538 18.5002 75.6973 18.5002 76.1326 19.719C77.0902 22.2002 76.3938 24.159 73.8691 26.1179C72.2149 27.4237 72.3891 28.1202 74.5655 29.0779C75.5667 29.5132 77.2644 30.8626 78.3526 32.0379C82.7491 36.8261 84.3597 38.1755 86.4055 38.9155C87.5808 39.3073 88.8867 39.612 89.322 39.612C90.4538 39.612 90.2797 40.352 88.7997 41.8755C87.5808 43.0943 87.2761 43.1814 85.2738 43.0073L83.0973 42.7896L83.3585 45.0096C83.8373 48.4049 84.7949 50.3202 86.8844 52.192L88.7997 53.8896L87.7114 54.5861C86.362 55.4567 83.9244 55.5002 82.2702 54.6296C81.0514 53.9767 80.9644 54.0202 80.7902 54.9343C80.6597 55.5002 80.2679 57.372 79.8326 59.1132C79.3973 61.072 79.2232 63.0743 79.3973 64.2496L79.6585 66.1649H78.0914C76.9161 66.1649 76.2197 65.8602 75.3055 64.859L74.0867 63.5532L73.8255 64.9896C73.2161 68.2108 69.9949 70.9532 66.7738 70.9532H65.4244L65.8597 68.6461C66.7302 63.9449 67.122 62.9002 68.602 61.5073L70.1255 60.1143L69.0373 59.8096C67.8185 59.5049 66.8173 58.5473 66.4255 57.1979C66.1644 56.3708 66.3385 56.2402 68.1232 56.0226C70.6479 55.7614 72.9985 53.9767 74.3044 51.3649C74.8702 50.3202 75.2185 49.4061 75.1314 49.319C75.0879 49.232 74.3044 49.4932 73.4338 49.8414C71.4749 50.6249 68.3408 50.712 67.2961 49.9284C66.5561 49.3626 66.5561 49.319 67.6008 48.6226C68.2538 48.2308 69.2549 47.012 69.9079 45.9237C70.9091 44.1826 71.0397 43.5732 70.8655 41.0049C70.6044 36.0426 67.6879 31.6896 62.0726 27.6414C57.2408 24.2026 56.8491 22.9837 60.1138 21.2861C62.4644 20.1108 63.0302 18.8049 62.1161 16.5414L61.4632 14.8002H62.8126C63.5961 14.8002 64.902 15.1485 65.6855 15.5838Z" fill="#915C46" fill-opacity="0.3"/>
<path d="M63.5528 25.2907C71.8669 30.5577 74.0434 32.6472 75.1752 36.5213C75.8716 38.9154 75.6975 41.0048 74.6528 43.7472C74.3481 44.6177 74.3481 44.6177 75.0011 43.7472C75.9152 42.4848 76.7422 39.2636 76.4375 37.9142C76.3069 37.2177 76.5681 37.5225 77.1775 38.7413C78.0046 40.3954 78.1352 41.4401 78.1352 45.2707C78.0916 50.7119 77.3081 53.106 73.8693 58.1554C72.6069 59.9401 71.1705 62.2472 70.6046 63.2483C70.0387 64.2495 69.8646 64.7283 70.1693 64.2495C70.474 63.8142 71.7799 62.1601 73.0422 60.5495C75.9587 56.893 78.7011 51.4954 79.0493 48.666L79.354 46.446L80.1375 47.926C80.5293 48.753 81.3999 49.8848 82.0528 50.4942L83.2281 51.5825L82.0963 49.8848C81.4434 48.9272 80.5293 46.7942 80.0505 45.0966C79.5716 43.3989 78.8752 40.9177 78.5269 39.6119C77.2211 35.0848 73.1728 30.253 68.1669 27.2495L65.5552 25.6825H67.514C68.5587 25.6825 69.6905 25.5083 69.9952 25.2907C70.3869 25.073 69.4293 24.9425 67.6011 24.986C65.9905 24.986 64.0752 24.8554 63.3352 24.6813L62.0293 24.333L63.5528 25.2907Z" fill="#915C46" fill-opacity="0.3"/>
<path d="M13.7992 25.2905C13.1462 25.4646 11.9274 26.2046 11.0568 26.9446C10.2298 27.6846 8.66271 28.5552 7.57447 28.8164C6.48624 29.1211 5.65918 29.5999 5.65918 29.9482C5.65918 30.2964 6.31212 31.2105 7.13918 32.0376C8.358 33.2564 8.92389 33.5176 10.4909 33.5176C12.1886 33.5176 12.5368 33.2999 14.4086 31.2976C15.5404 30.0788 17.1945 28.6423 18.0651 28.1199C19.5886 27.1623 19.6321 27.1623 18.7615 26.3788C17.6733 25.3776 15.3662 24.8552 13.7992 25.2905ZM16.5415 26.9011C16.5415 27.554 11.4051 32.2117 10.7086 32.2117C9.79447 32.2117 7.83565 31.2976 7.83565 30.8623C7.83565 30.6446 8.57565 30.1223 9.48977 29.6435C10.3604 29.1646 11.7098 28.294 12.4062 27.6846C13.6686 26.6399 16.5415 26.1176 16.5415 26.9011Z" fill="#915C46" fill-opacity="0.3"/>
<path d="M80.094 25.1602C79.4846 25.2472 78.4834 25.7261 77.7869 26.2049L76.5681 27.0755L78.0046 27.9461C78.7881 28.4249 80.4422 29.8614 81.6611 31.1672C83.6634 33.3002 84.0552 33.5178 85.7528 33.5178C87.2328 33.5178 87.8422 33.2566 89.0611 32.0378C90.9764 30.1225 90.9328 29.339 89.0175 28.9908C88.1905 28.8166 86.5799 27.9896 85.4916 27.119C83.2716 25.4649 81.7916 24.899 80.094 25.1602ZM84.0987 27.859C84.9693 28.599 86.4058 29.4696 87.2328 29.8178C88.1034 30.2096 88.7999 30.5578 88.7999 30.6884C88.7999 31.0366 86.2752 32.2119 85.5352 32.2119C84.8387 32.2119 79.6587 27.4672 79.6587 26.8143C79.6587 26.6837 80.3116 26.5531 81.0952 26.5531C82.0093 26.5531 83.054 26.9884 84.0987 27.859Z" fill="#915C46" fill-opacity="0.3"/>
<path d="M306.447 31.9507C306.447 32.9084 306.186 33.0825 304.401 33.3001C296.305 34.3884 292.518 37.7837 292.518 43.9213C292.518 49.8848 296.435 53.3672 304.183 54.2813C306.186 54.499 306.447 54.6296 306.447 55.5437C306.447 56.5448 306.534 56.5884 310.147 56.5884C313.716 56.5884 313.847 56.5448 313.847 55.5872C313.847 54.6731 314.152 54.5425 317.286 54.0637C324.512 53.019 328.212 49.6237 328.212 43.9648C328.212 38.2625 324.163 34.519 316.807 33.4307C314.108 32.9954 313.847 32.9084 313.847 31.9507C313.847 30.9496 313.76 30.906 310.147 30.906C306.534 30.906 306.447 30.906 306.447 31.9507ZM306.447 43.9213V49.1013L304.662 48.7096C301.572 48.0131 299.918 46.3154 299.918 43.8343C299.918 41.4401 302.834 38.7848 305.489 38.7413C306.447 38.7413 306.447 38.8284 306.447 43.9213ZM317.286 39.4378C319.419 40.2648 320.376 41.6578 320.376 43.8343C320.376 46.5766 318.809 48.1437 315.501 48.7531L313.847 49.0578V43.9213C313.847 38.0884 313.847 38.0448 317.286 39.4378Z" fill="#915C46" fill-opacity="0.3"/>
<path d="M344.318 31.9507C344.318 32.8648 344.057 32.9954 341.14 33.4743C334.829 34.4754 331.346 37.0872 330.345 41.5272C328.822 48.4048 333.131 53.2801 341.663 54.2378C344.1 54.499 344.318 54.6296 344.318 55.5437C344.318 56.5448 344.405 56.5884 348.018 56.5884C351.631 56.5884 351.718 56.5448 351.718 55.5437C351.718 54.6296 351.979 54.499 354.025 54.2813C357.899 53.8025 360.816 52.7143 362.687 51.0166C364.951 48.9707 365.647 47.3166 365.647 43.8778C365.647 37.7401 361.904 34.3884 353.807 33.3001C351.979 33.0825 351.718 32.9084 351.718 31.9507C351.718 30.906 351.631 30.906 348.018 30.906C344.405 30.906 344.318 30.9496 344.318 31.9507ZM344.318 43.9213V49.0578L342.707 48.7531C339.443 48.1872 337.789 46.5766 337.789 44.0519C337.789 41.2225 340.313 38.8284 343.36 38.7848C344.318 38.7413 344.318 38.8284 344.318 43.9213ZM354.635 39.2201C357.507 40.3084 358.9 43.1378 357.812 45.7496C357.116 47.3601 356.027 48.1437 353.59 48.666L351.718 49.1013V43.9213C351.718 38.219 351.762 38.1319 354.635 39.2201Z" fill="#915C46" fill-opacity="0.3"/>
<path d="M272.146 31.7766C266.531 32.4295 261.481 36.173 260.262 40.613C258.521 47.0989 262.265 53.5413 268.925 55.5872C272.581 56.7189 278.893 56.5448 282.288 55.2825C285.509 54.0636 288.992 50.7119 289.819 48.0566C292.082 40.3954 287.381 33.0389 279.459 31.9942C275.715 31.4719 274.888 31.4719 272.146 31.7766ZM278.98 38.5236C281.2 39.6554 282.506 41.6142 282.506 43.8342C282.506 47.7954 279.633 50.2766 275.106 50.2766C267.749 50.233 264.92 41.7883 271.188 38.6542C273.06 37.6966 277.282 37.6095 278.98 38.5236Z" fill="#915C46" fill-opacity="0.3"/>
<path d="M113.611 35.4766V38.7413H118.617H123.623V47.2295V55.7178H127.541H131.458V47.2295V38.7413H136.464H141.47V35.4766V32.2119H127.541H113.611V35.4766Z" fill="#915C46" fill-opacity="0.3"/>
<path d="M143.647 43.9648V55.7178H147.043H150.482L156.315 49.1884L162.147 42.659L162.278 49.1884L162.409 55.7178H166.065H169.765V43.9648V32.2119H166.326H162.887L157.098 38.6978L151.265 45.2272L151.135 38.6978L151.004 32.2119H147.347H143.647V43.9648Z" fill="#915C46" fill-opacity="0.3"/>
<path d="M174.553 43.9648V55.7178H178.253H181.953V51.3648V47.0119H187.394H192.835V51.3648V55.7178H196.535H200.235V43.9648V32.2119H196.535H192.835V36.3472V40.4825H187.394H181.953V36.3472V32.2119H178.253H174.553V43.9648Z" fill="#915C46" fill-opacity="0.3"/>
<path d="M205.459 43.9648V55.7178H213.86C223.524 55.7178 225.787 55.2825 227.964 53.019C229.923 50.9295 230.271 50.0154 230.271 47.0119C230.271 43.4425 229.139 41.3095 226.484 39.7425C224.568 38.6107 224.003 38.5237 218.648 38.3931L212.859 38.219V35.2154V32.2119H209.159H205.459V43.9648ZM221.913 45.0966C223.132 45.9237 223.175 47.5778 222 48.7531C221.26 49.4931 220.564 49.6237 216.994 49.6237H212.859V47.0119V44.4001H216.907C219.867 44.4001 221.217 44.5742 221.913 45.0966Z" fill="#915C46" fill-opacity="0.3"/>
<path d="M233.753 43.9648V55.7178H237.453H241.153V51.3648C241.153 47.4037 241.24 47.0119 241.98 47.0119C242.415 47.0119 244.592 48.8837 246.986 51.3648L251.165 55.7178H255.953C258.565 55.7178 260.741 55.5872 260.741 55.4131C260.741 55.2825 258.129 52.4966 254.995 49.2754L249.206 43.399L254.778 38.1319C257.825 35.259 260.306 32.7342 260.306 32.5166C260.306 32.3425 258.304 32.2119 255.822 32.2119H251.382L247.029 36.5648C244.635 38.959 242.328 40.9178 241.936 40.9178C241.24 40.9178 241.153 40.439 241.153 36.5648V32.2119H237.453H233.753V43.9648Z" fill="#915C46" fill-opacity="0.3"/>
<path d="M34.9545 72.433C35.9122 74.8706 35.8251 75.1753 34.2145 75.7412C33.3439 76.0024 32.6475 76.3941 32.6475 76.6118C32.6475 76.8294 34.2145 77.613 36.1298 78.3965C38.9157 79.5283 39.5686 79.9636 39.4816 80.7036C39.351 82.053 42.4416 82.793 48.1004 82.793C53.9333 82.793 56.8498 82.053 56.7192 80.6165C56.6322 80.0941 56.8063 79.6589 57.0239 79.6589C57.7639 79.6589 63.5534 76.96 63.5534 76.5683C63.5534 76.3941 62.8569 76.0024 62.0298 75.7412C60.8981 75.3494 60.5498 75.0447 60.6804 74.5224C60.7675 74.0871 61.0286 73.3036 61.1592 72.7377C61.5075 71.5189 61.8992 71.4753 56.0663 73.6083C53.7592 74.4353 52.2357 75.2189 52.2357 75.5671C52.2357 76.5247 44.0957 76.4377 43.8781 75.48C43.791 75.0883 42.2675 74.3047 40.0475 73.5212C34.3016 71.5189 34.6498 71.5624 34.9545 72.433ZM39.5251 74.653C41.571 75.48 41.571 75.48 40.8745 77.4389C40.3522 78.9624 40.091 78.9624 36.7828 77.4824C35.1286 76.7424 35.0851 76.6553 36.0428 76.3506C36.9133 76.0894 37.0439 75.8283 36.8263 74.7836C36.6522 73.8259 36.7392 73.5212 37.131 73.6953C37.3922 73.8259 38.4804 74.2612 39.5251 74.653ZM59.3745 74.8271C59.1569 75.9153 59.2875 76.0894 60.3757 76.3941L61.5945 76.6989L59.6357 77.4824C55.8486 78.9624 55.9357 78.9624 55.3698 77.1777C55.1086 76.2636 55.0216 75.48 55.1957 75.393C55.3698 75.3494 56.2839 74.9141 57.2416 74.4789C59.5922 73.3471 59.6357 73.3906 59.3745 74.8271ZM48.1004 77.4824C49.5369 77.4824 51.4522 77.3083 52.3663 77.0906C53.8898 76.7424 54.0639 76.7859 54.4557 77.7436C55.4134 80.3118 55.3698 80.8341 54.3251 81.1389C51.1475 82.0094 42.0063 81.7918 41.0051 80.7471C40.8745 80.66 41.1357 79.7024 41.5275 78.6141C42.2675 76.6989 42.2675 76.6989 43.8781 77.0906C44.7486 77.3083 46.6639 77.4824 48.1004 77.4824Z" fill="#915C46" fill-opacity="0.3"/>
</svg>
