<svg width="254" height="38" viewBox="0 0 254 38" fill="none" xmlns="http://www.w3.org/2000/svg">
<path d="M17.036 0.252423C9.80081 1.55236 3.64323 6.8034 1.12889 13.7991C0.513131 15.5095 0 18.1778 0 19.6317V20.8461H4.07084H8.15879L8.36404 22.5907C9.08242 28.4575 12.4862 33.2981 17.703 35.8124C20.3713 37.1123 21.5002 37.3518 24.9724 37.3518C27.5894 37.3518 28.1367 37.3005 29.334 36.9584C35.3718 35.2138 39.7677 30.6811 41.2558 24.6775C41.7518 22.6763 41.786 18.8962 41.3242 16.7752C40.3834 12.3965 38.6901 9.24932 35.5771 6.11922C32.3957 2.9036 28.7867 0.970807 24.4764 0.235319C22.6804 -0.0896645 18.849 -0.0725601 17.036 0.252423ZM26.5289 12.7215C27.5551 12.8583 29.4708 13.782 30.4287 14.6201C30.8392 14.9793 31.4892 15.7319 31.8483 16.2963C34.0206 19.6659 33.4904 24.0617 30.5997 26.7471C27.2644 29.8259 22.4067 29.7575 19.2253 26.5932C15.1887 22.5565 16.2663 15.9542 21.3805 13.4228C22.6291 12.807 24.2882 12.4478 25.3145 12.5676C25.5539 12.6018 26.1013 12.6702 26.5289 12.7215Z" fill="#915C46"/>
<path d="M64.4832 7.91502C60.3952 8.80445 57.2651 11.182 55.4863 14.7739C54.4087 16.9803 54.1521 18.1092 54.1521 20.7604C54.135 23.3603 54.4087 24.6431 55.4178 26.7469C56.6322 29.2784 58.5821 31.2283 61.1478 32.494C63.3372 33.5716 64.3292 33.7597 67.4764 33.7426C69.9737 33.7426 70.3328 33.6913 71.5815 33.2808C74.5576 32.2888 77.1233 30.1678 78.4745 27.5508C79.0732 26.422 79.8771 24.455 79.8771 24.1471C79.8771 24.13 78.389 24.0958 76.5588 24.0958H73.2406L72.7275 25.0023C72.0433 26.2167 70.692 27.414 69.4776 27.8587C68.6737 28.1666 68.229 28.2179 66.9633 28.1666C65.612 28.1153 65.2871 28.0298 64.3463 27.5166C62.003 26.268 60.7202 23.8734 60.7202 20.7433C60.7202 16.3304 63.7306 13.1147 67.6133 13.3542C69.8368 13.491 71.8209 14.791 72.8643 16.7751L73.2919 17.5961H76.593H79.8771L79.7745 17.1172C79.4153 15.6804 78.4745 13.7647 77.4141 12.3451C75.9602 10.4123 73.4458 8.77024 70.8973 8.10317C69.4776 7.70977 65.9028 7.62424 64.4832 7.91502Z" fill="#915C46"/>
<path d="M92.2781 7.93233C88.0875 8.83887 84.5298 12.4992 83.2812 17.1858C82.7681 19.1015 82.7681 22.4368 83.2812 24.3525C84.2733 28.0642 86.5481 31.0403 89.6269 32.631C91.3032 33.5034 92.7057 33.8455 94.7582 33.8455C97.5805 33.8455 99.7869 33.0587 101.429 31.4851L102.284 30.664V31.9982V33.3323H105.534H108.784V20.7606V8.1889H105.534H102.284V9.57435V10.9769L101.395 10.0875C99.3935 8.08627 95.6306 7.19685 92.2781 7.93233ZM98.5896 13.7991C101.07 14.9109 102.592 17.545 102.609 20.7606C102.643 23.9762 100.899 26.9182 98.4186 27.8418C97.1358 28.3379 95.1174 28.3379 93.8175 27.8418C92.5005 27.3458 90.9782 25.909 90.3282 24.5407C88.498 20.6922 89.798 15.7832 93.0991 14.0728C94.724 13.2176 97.0331 13.115 98.5896 13.7991Z" fill="#915C46"/>
<path d="M157.531 7.9322C152.793 8.90715 149.184 12.1228 147.559 16.8265C147.063 18.2461 147.029 18.5369 147.012 20.675C147.012 23.4117 147.251 24.4721 148.38 26.7641C150.005 30.0824 153.204 32.6138 156.881 33.5032C158.831 33.9651 161.619 33.9651 163.449 33.5032C168.905 32.1007 172.549 27.9272 173.284 22.2828C174.396 13.5766 166.237 6.15335 157.531 7.9322ZM162.714 13.9187C164.715 14.9108 166.22 17.1344 166.613 19.6487C167.126 22.9327 165.433 26.3707 162.662 27.6707C161.721 28.1154 161.345 28.2009 160.233 28.2009C158.489 28.2009 157.309 27.7562 156.077 26.6273C154.384 25.0879 153.597 23.2064 153.597 20.7776C153.597 17.3054 155.444 14.5345 158.437 13.5595C159.601 13.1832 161.533 13.3372 162.714 13.9187Z" fill="#915C46"/>
<path d="M212.009 7.84677C208.537 8.54805 205.356 11.1308 203.696 14.603C202.636 16.8095 202.431 17.8186 202.431 20.8461C202.431 23.1381 202.482 23.6683 202.824 24.7801C204.124 28.9193 206.826 31.9126 210.521 33.2981C211.428 33.6231 212.095 33.7428 213.651 33.8112C216.85 33.9309 218.971 33.2468 220.852 31.485L221.673 30.7153V32.0323V33.3323H224.923H228.173V20.7606V8.18885H224.923H221.673V9.52299V10.8571L220.801 10.0361C219.723 9.02697 218.218 8.27438 216.627 7.93229C215.344 7.65862 213.138 7.62441 212.009 7.84677ZM218.321 13.9872C220.048 14.8253 221.348 16.57 221.827 18.6396C222.084 19.7514 222.049 22.0092 221.759 23.1552C220.955 26.2169 218.56 28.2181 215.669 28.2181C213.617 28.2352 212.214 27.6365 210.914 26.234C207.853 22.9157 208.4 16.8608 211.992 14.3977C213.189 13.5767 214.164 13.3202 215.806 13.3715C216.952 13.4228 217.38 13.5254 218.321 13.9872Z" fill="#915C46"/>
<path d="M114.429 20.7606V33.3323H117.679H120.928V25.755C120.945 18.9988 120.963 18.2291 121.202 18.537C123.374 21.4447 128.54 27.8418 128.625 27.7391C128.694 27.6707 130.353 25.5327 132.32 22.9841L135.895 18.3831L135.946 25.8577L135.98 33.3323H139.316H142.651V20.7606V8.18885H139.829H137.024L132.799 13.5767C130.473 16.5358 128.506 18.9646 128.454 18.9646C128.386 18.9646 126.453 16.5358 124.161 13.5767L119.988 8.20595L117.217 8.18885H114.429V20.7606Z" fill="#915C46"/>
<path d="M177.715 20.7606V33.3323H180.965H184.215L184.249 28.0641L184.3 22.7789L189.26 28.0641L194.221 33.3323H198.377C202.294 33.3323 202.55 33.3152 202.328 33.0415C202.191 32.8876 199.489 30.0311 196.324 26.6958C192.63 22.8131 190.594 20.5553 190.68 20.4356C190.748 20.3158 193.04 17.5791 195.76 14.3635C198.497 11.1479 200.737 8.44541 200.772 8.34278C200.806 8.25726 199.352 8.18885 197.009 8.18885H193.194L188.747 13.5596L184.3 18.9475L184.249 13.5596L184.215 8.18885H180.965H177.715V20.7606Z" fill="#915C46"/>
<path d="M232.448 11.0111V13.8333H236.211H239.974V23.5828V33.3323H243.224H246.474V23.5828V13.8333H250.237H254V11.0111V8.18885H243.224H232.448V11.0111Z" fill="#915C46"/>
</svg>
