<svg width="137" height="35" viewBox="0 0 137 35" fill="none" xmlns="http://www.w3.org/2000/svg">
<g clip-path="url(#clip0_474_532)">
<path d="M10.77 0.840528C8.45547 1.175 5.85996 2.23193 4.34814 3.46279C1.65898 5.64356 0.401367 9.06856 0.802734 13.0555C0.97666 14.7145 1.31113 15.8918 2.02021 17.2966C2.9166 19.076 4.73613 21.0828 6.91689 22.6749L7.6126 23.1833L3.81299 28.856C1.7125 31.9732 0 34.5554 0 34.5955C0 34.6356 1.4583 34.6758 3.25107 34.6758L6.48877 34.6624L10.7566 28.2405C14.4225 22.7418 15.0111 21.7919 14.8372 21.6447C14.7302 21.5377 13.6866 20.8152 12.5093 20.0125C9.8335 18.193 8.14775 16.5875 7.50557 15.2362C6.46201 13.0287 6.42187 10.0854 7.42529 8.37285C8.20127 7.03496 9.8335 5.97803 11.7065 5.57666C12.2818 5.45625 13.3923 5.37598 14.6231 5.37598H16.5898V20.0259V34.6758H19.6001H22.6104V17.6846V0.69336L17.0982 0.706739C14.0612 0.720118 11.2115 0.773633 10.77 0.840528Z" fill="#915C46" fill-opacity="0.3"/>
<path d="M83.2305 9.65734C78.4275 10.3397 75.4172 13.8717 74.6413 19.7584C74.4138 21.4843 74.561 25.3107 74.9088 26.8091C76.0059 31.5586 78.9091 34.3013 83.6185 35.0104C86.9231 35.5188 90.4551 35.0371 93.1175 33.6992L94.2547 33.1373L94.2949 30.6221L94.3216 28.1202L93.6794 28.5216C91.6057 29.7926 88.0469 30.6756 85.826 30.4482C82.6418 30.1404 81.1568 28.6554 80.7019 25.3374L80.5815 24.5079H87.592H94.5892V21.9793C94.5892 18.1931 94.228 16.1461 93.2112 14.0724C92.181 11.9719 90.3749 10.5136 88.0737 9.91154C86.8696 9.60383 84.5015 9.48342 83.2305 9.65734ZM86.4013 14.5942C87.6723 15.2363 88.368 16.6545 88.5286 18.9155L88.6088 20.0929H84.5818H80.5681L80.635 19.5176C80.8625 17.5108 81.2638 16.3602 82.0264 15.4905C82.6285 14.8216 83.0566 14.5406 83.846 14.34C84.555 14.166 85.7993 14.2864 86.4013 14.5942Z" fill="#915C46" fill-opacity="0.3"/>
<path d="M128.839 9.61704C127.93 9.71069 126.431 10.0853 125.602 10.4064C120.999 12.2794 118.524 17.4705 119.059 24.1064C119.541 30.0734 122.029 33.4984 126.806 34.7694C127.983 35.0905 128.344 35.1172 130.579 35.1306C132.759 35.1306 133.174 35.1039 134.124 34.8363C134.699 34.6624 135.529 34.3413 135.957 34.1138L136.733 33.6991V31.2507C136.733 29.8995 136.706 28.789 136.666 28.789C136.626 28.789 136.318 28.9629 135.97 29.177C135.609 29.3911 134.846 29.7389 134.258 29.953C133.281 30.2875 133.027 30.3276 131.247 30.3276C129.388 30.3276 129.281 30.3142 128.545 29.953C127.127 29.2573 126.177 28.013 125.628 26.1132C125.214 24.6817 125.093 21.0292 125.414 19.4104C125.682 18.0993 126.337 16.641 127.006 15.865C128.09 14.6208 130.017 14.0455 132.171 14.3264C133.495 14.487 135.154 14.9954 136.037 15.477L136.599 15.7981V13.216V10.6338L136.037 10.4198C134.191 9.73745 131.074 9.3896 128.839 9.61704Z" fill="#915C46" fill-opacity="0.3"/>
<path d="M27.4268 22.3672V34.6758H30.3701H33.3135V29.5918V24.5078H37.1265H40.9395V29.5918V34.6758H43.9497H46.96V22.3672V10.0586H43.9497H40.9395V14.875V19.6914H37.1265H33.3135V14.875V10.0586H30.3701H27.4268V22.3672Z" fill="#915C46" fill-opacity="0.3"/>
<path d="M53.4755 14.0321C53.3149 20.949 52.8199 25.1366 51.7897 28.1469C51.1208 30.0868 51.2011 29.9932 50.1441 29.9932H49.2344V35.144V40.2949H51.9771H54.7197V37.4854V34.6758H61.1416H67.5635V37.4854V40.2949H70.373H73.1826V35.144V29.9932H71.9116H70.6406V20.0259V10.0586H62.1049H53.5558L53.4755 14.0321ZM64.6201 22.3672V29.9932H60.6198H56.6062L56.8737 29.2172C57.7969 26.5815 58.3855 22.4207 58.5595 17.31L58.6397 14.7412H61.6366H64.6201V22.3672Z" fill="#915C46" fill-opacity="0.3"/>
<path d="M98.335 22.3672V34.6758H101.345H104.355L104.382 28.8024L104.422 22.9425L108.57 28.8024L112.717 34.6624L116.102 34.6758C117.948 34.6758 119.474 34.649 119.474 34.6089C119.474 34.5688 117.4 31.5853 114.858 27.9729L110.229 21.4173L114.149 15.9988C116.303 13.0287 118.149 10.4733 118.256 10.3262C118.443 10.0586 118.417 10.0586 115.38 10.0854L112.316 10.1255L108.369 15.5841L104.422 21.0427L104.382 15.5439L104.355 10.0586H101.345H98.335V22.3672Z" fill="#915C46" fill-opacity="0.3"/>
</g>
<defs>
<clipPath id="clip0_474_532">
<rect width="137" height="34" fill="white" transform="translate(0 0.74707)"/>
</clipPath>
</defs>
</svg>
