<svg width="200" height="67" viewBox="0 0 200 67" fill="none" xmlns="http://www.w3.org/2000/svg">
<path d="M138.253 0.0680349C105.678 1.44303 69.4403 8.48053 41.1903 18.943C38.7903 19.8305 33.6778 21.843 33.2778 22.0555C33.1778 22.1055 34.0028 22.1305 35.0903 22.093C36.6403 22.043 37.3153 22.0805 38.1403 22.243C40.1778 22.6555 41.4528 23.5055 42.1528 24.9055C42.5153 25.6555 42.5528 25.843 42.6028 27.2055L42.6528 28.693H40.1028H37.5403L37.4653 27.7555C37.4278 27.1805 37.3028 26.6555 37.1653 26.4055C36.7153 25.6305 35.6403 25.368 34.6403 25.768C33.6903 26.143 33.3278 27.6805 33.9653 28.5555C34.3653 29.093 35.2778 29.7055 37.0903 30.693C42.2653 33.468 43.2528 34.7055 43.0903 38.2555C42.9653 41.093 42.0153 42.593 39.7528 43.518C38.0403 44.218 34.8028 44.3805 32.7653 43.8805C29.6403 43.118 28.1403 41.093 28.1278 37.6555V36.568H30.9403H33.7528V37.7805C33.7528 39.143 33.9278 39.668 34.5403 40.118C35.0528 40.493 36.5778 40.493 37.0903 40.118C38.1528 39.343 38.1278 37.5555 37.0403 36.5555C36.5153 36.068 35.7528 35.5805 33.9403 34.568C29.8778 32.293 28.7278 31.118 28.3778 28.8805C28.2278 27.918 28.2903 27.0055 28.5778 25.943C28.8028 25.1555 29.1278 24.5805 29.7278 23.9055C29.9653 23.6555 30.1278 23.443 30.0903 23.443C29.9278 23.443 26.1153 25.2555 23.3778 26.643C17.4528 29.6305 12.9028 32.443 8.91528 35.568C7.16528 36.943 3.90278 40.193 2.84028 41.6305C1.79028 43.0305 0.577784 45.443 0.252784 46.743C-0.0597164 47.968 -0.0847164 50.0555 0.190284 51.1305C1.45278 56.0305 6.92778 59.8555 16.5403 62.568C30.1528 66.418 51.8028 67.418 75.7528 65.3055C107.065 62.543 139.74 55.143 164.253 45.2555C165.665 44.6805 167.128 44.0805 167.503 43.893L168.19 43.5805L167.503 43.668C167.128 43.718 166.115 43.743 165.253 43.743C161.59 43.693 159.278 42.343 158.465 39.768C158.203 38.9055 158.19 38.743 158.19 33.068C158.19 27.893 158.215 27.168 158.415 26.4555C159.003 24.3055 160.328 23.068 162.728 22.418C164.103 22.0555 167.028 22.0555 168.403 22.418C171.453 23.243 172.865 25.1055 172.878 28.343V29.318H170.265H167.653L167.603 28.193C167.565 27.3055 167.49 26.993 167.29 26.718C166.878 26.168 166.278 25.8805 165.503 25.8805C164.665 25.8805 164.065 26.2055 163.69 26.818C163.453 27.243 163.44 27.4805 163.403 32.693C163.378 35.6805 163.403 38.318 163.44 38.543C163.74 40.2055 166.415 40.593 167.39 39.118C167.59 38.8055 167.628 38.5055 167.628 36.7805V34.818H166.565H165.49L165.528 33.2805L165.565 31.7555L169.228 31.718L172.878 31.693V35.1055C172.878 37.0305 172.815 38.843 172.74 39.2555C172.565 40.218 172.115 41.0805 171.415 41.8305L170.84 42.443L172.015 41.918C174.115 40.968 179.64 38.143 181.79 36.9055C191.953 31.0555 197.915 25.4055 199.628 20.0055C200.053 18.668 200.115 16.318 199.765 15.018C198.34 9.83054 192.253 5.89303 181.515 3.19303C175.665 1.73053 169.215 0.843035 159.753 0.180535C157.328 0.0180349 141.528 -0.0694651 138.253 0.0680349ZM106.078 22.5055C108.728 23.2805 109.99 25.0805 109.853 27.943L109.815 28.7555H107.253H104.69L104.628 27.6555C104.565 26.643 104.528 26.543 104.165 26.168C103.828 25.8305 103.653 25.768 103.028 25.718C102.003 25.643 101.428 25.9305 101.103 26.668C100.915 27.093 100.878 27.3555 100.94 27.8055C101.065 28.693 101.89 29.4055 104.253 30.6805C107.678 32.5305 109.203 33.7305 109.853 35.0805C110.465 36.343 110.478 39.0055 109.878 40.6055C109.328 42.0805 107.853 43.2555 105.878 43.7805C104.715 44.093 101.153 44.093 100.003 43.768C97.5528 43.093 96.0778 41.6805 95.6403 39.593C95.5653 39.2305 95.5028 38.393 95.5028 37.7555V36.568H98.2528H101.003V37.718C101.003 39.068 101.203 39.593 101.865 40.0305C102.39 40.3805 103.553 40.4305 104.203 40.118C105.028 39.7305 105.378 38.3055 104.89 37.343C104.44 36.4805 103.853 36.0305 101.115 34.493C98.7403 33.168 97.8778 32.5555 96.9778 31.5805C96.1153 30.6555 95.7528 29.768 95.6653 28.3805C95.4403 24.693 97.6278 22.4805 101.74 22.2055C103.29 22.1055 105.153 22.2305 106.078 22.5055ZM61.4528 33.0055C62.4903 38.643 63.3153 43.293 63.2903 43.343C63.2403 43.443 57.7528 43.493 57.7528 43.4055C57.7528 43.293 55.1278 25.4555 55.0528 25.068C55.0028 24.8305 54.9528 24.6805 54.9278 24.7555C54.9028 24.818 54.2528 29.018 53.5028 34.0555C52.7403 39.1055 52.0778 43.293 52.0528 43.343C51.9778 43.468 46.5028 43.4805 46.5028 43.343C46.5028 43.293 47.3528 38.6305 48.4028 32.968L50.3028 22.693L54.9278 22.718L59.5528 22.7555L61.4528 33.0055ZM76.4278 23.0305C76.4653 23.2305 77.0403 26.7305 77.6903 30.818C78.3528 34.9055 78.9028 38.3055 78.9278 38.3805C78.9528 38.443 79.0028 38.3305 79.0403 38.1305C79.1653 37.5805 81.5028 23.018 81.5028 22.843C81.5028 22.7305 82.5278 22.693 85.7528 22.693C88.0903 22.693 90.0028 22.7055 90.0028 22.718C90.0528 23.0055 90.4653 43.2805 90.4153 43.343C90.3903 43.4055 89.2153 43.443 87.8028 43.443H85.2528L85.2403 38.9055C85.2278 36.418 85.1778 32.218 85.1403 29.568L85.0653 24.768L83.5778 32.7555C82.7653 37.1555 81.9903 41.3555 81.8528 42.1055L81.6028 43.443L78.9528 43.418L76.3153 43.3805L74.6153 34.2555C73.6903 29.2305 72.8903 25.043 72.8528 24.943C72.8028 24.843 72.7653 27.568 72.7653 31.0055C72.7528 34.443 72.7153 38.643 72.6653 40.343L72.5903 43.443H70.0403H67.5028V41.468C67.5028 40.393 67.5903 36.1055 67.6903 31.943C67.7903 27.7805 67.8778 24.0055 67.8778 23.5305V22.693H72.1153H76.3528L76.4278 23.0305ZM120.378 30.693C120.378 39.3555 120.365 39.1805 121.065 39.818C121.365 40.093 121.503 40.1305 122.378 40.1305C123.253 40.1305 123.39 40.093 123.69 39.818C124.403 39.1555 124.378 39.5055 124.378 30.7555V22.693H127.003H129.628V30.918C129.628 39.8805 129.628 39.918 128.915 41.2305C128.528 41.943 127.69 42.718 126.878 43.1305C124.928 44.118 121.378 44.293 118.928 43.518C117.615 43.1055 116.703 42.4555 116.04 41.4805C115.128 40.118 115.128 40.093 115.128 30.8305V22.693H117.753H120.378V30.693ZM143.24 23.093C143.303 23.318 144.353 26.9055 145.565 31.068C146.79 35.2305 147.803 38.6555 147.84 38.693C147.928 38.768 147.778 26.968 147.678 24.468L147.59 22.693H150.24H152.878L152.853 32.9055L152.815 43.1305L149.115 43.168L145.428 43.193L142.878 34.818C141.478 30.218 140.315 26.468 140.278 26.493C140.253 26.5305 140.29 29.8305 140.365 33.843C140.44 37.8555 140.503 41.593 140.503 42.1555V43.193H137.94H135.378V32.943V22.693H139.24H143.103L143.24 23.093Z" fill="#915C46"/>
</svg>
