<svg width="137" height="40" viewBox="0 0 137 40" fill="none" xmlns="http://www.w3.org/2000/svg">
<path d="M10.77 0.147168C8.45547 0.481641 5.85996 1.53857 4.34814 2.76943C1.65898 4.9502 0.401367 8.3752 0.802734 12.3621C0.97666 14.0211 1.31113 15.1984 2.02021 16.6032C2.9166 18.3826 4.73613 20.3895 6.91689 21.9815L7.6126 22.4899L3.81299 28.1626C1.7125 31.2799 0 33.862 0 33.9021C0 33.9423 1.4583 33.9824 3.25107 33.9824L6.48877 33.969L10.7566 27.5472C14.4225 22.0484 15.0111 21.0985 14.8372 20.9514C14.7302 20.8443 13.6866 20.1219 12.5093 19.3191C9.8335 17.4996 8.14775 15.8941 7.50557 14.5429C6.46201 12.3354 6.42187 9.39199 7.42529 7.67949C8.20127 6.3416 9.8335 5.28467 11.7065 4.8833C12.2818 4.76289 13.3923 4.68262 14.6231 4.68262H16.5898V19.3325V33.9824H19.6001H22.6104V16.9912V4.73112e-07L17.0982 0.0133794C14.0612 0.0267583 11.2115 0.0802739 10.77 0.147168Z" fill="#915C46"/>
<path d="M83.2305 8.96398C78.4275 9.64631 75.4172 13.1783 74.6413 19.0651C74.4138 20.7909 74.561 24.6173 74.9088 26.1157C76.0059 30.8653 78.9091 33.6079 83.6185 34.317C86.9231 34.8254 90.4551 34.3438 93.1175 33.0059L94.2547 32.444L94.2949 29.9287L94.3216 27.4269L93.6794 27.8282C91.6057 29.0992 88.0469 29.9822 85.826 29.7548C82.6418 29.4471 81.1568 27.962 80.7019 24.6441L80.5815 23.8146H87.592H94.5892V21.286C94.5892 17.4997 94.228 15.4528 93.2112 13.379C92.181 11.2785 90.3749 9.82023 88.0737 9.21818C86.8696 8.91047 84.5015 8.79006 83.2305 8.96398ZM86.4013 13.9008C87.6723 14.543 88.368 15.9612 88.5286 18.2222L88.6088 19.3995H84.5818H80.5681L80.635 18.8242C80.8625 16.8174 81.2638 15.6668 82.0264 14.7972C82.6285 14.1282 83.0566 13.8473 83.846 13.6466C84.555 13.4727 85.7993 13.5931 86.4013 13.9008Z" fill="#915C46"/>
<path d="M128.839 8.92368C127.93 9.01733 126.431 9.39194 125.602 9.71304C120.999 11.5861 118.524 16.7771 119.059 23.413C119.541 29.38 122.029 32.805 126.806 34.076C127.983 34.3971 128.344 34.4239 130.579 34.4373C132.759 34.4373 133.174 34.4105 134.124 34.1429C134.699 33.969 135.529 33.6479 135.957 33.4205L136.733 33.0057V30.5574C136.733 29.2061 136.706 28.0957 136.666 28.0957C136.626 28.0957 136.318 28.2696 135.97 28.4836C135.609 28.6977 134.846 29.0456 134.258 29.2596C133.281 29.5941 133.027 29.6342 131.247 29.6342C129.388 29.6342 129.281 29.6208 128.545 29.2596C127.127 28.5639 126.177 27.3197 125.628 25.4199C125.214 23.9883 125.093 20.3359 125.414 18.717C125.682 17.4059 126.337 15.9476 127.006 15.1716C128.09 13.9274 130.017 13.3521 132.171 13.6331C133.495 13.7936 135.154 14.302 136.037 14.7836L136.599 15.1047V12.5226V9.94048L136.037 9.72641C134.191 9.04409 131.074 8.69624 128.839 8.92368Z" fill="#915C46"/>
<path d="M27.4268 21.6738V33.9824H30.3701H33.3135V28.8984V23.8145H37.1265H40.9395V28.8984V33.9824H43.9497H46.96V21.6738V9.36523H43.9497H40.9395V14.1816V18.998H37.1265H33.3135V14.1816V9.36523H30.3701H27.4268V21.6738Z" fill="#915C46"/>
<path d="M53.4755 13.3388C53.3149 20.2557 52.8199 24.4433 51.7897 27.4535C51.1208 29.3935 51.2011 29.2998 50.1441 29.2998H49.2344V34.4507V39.6016H51.9771H54.7197V36.792V33.9824H61.1416H67.5635V36.792V39.6016H70.373H73.1826V34.4507V29.2998H71.9116H70.6406V19.3325V9.36523H62.1049H53.5558L53.4755 13.3388ZM64.6201 21.6738V29.2998H60.6198H56.6062L56.8737 28.5238C57.7969 25.8882 58.3855 21.7273 58.5595 16.6166L58.6397 14.0479H61.6366H64.6201V21.6738Z" fill="#915C46"/>
<path d="M98.335 21.6738V33.9824H101.345H104.355L104.382 28.1091L104.422 22.2491L108.57 28.1091L112.717 33.969L116.102 33.9824C117.948 33.9824 119.474 33.9557 119.474 33.9155C119.474 33.8754 117.4 30.8919 114.858 27.2796L110.229 20.7239L114.149 15.3055C116.303 12.3354 118.149 9.77998 118.256 9.63281C118.443 9.36523 118.417 9.36523 115.38 9.39199L112.316 9.43213L108.369 14.8907L104.422 20.3493L104.382 14.8506L104.355 9.36523H101.345H98.335V21.6738Z" fill="#915C46"/>
</svg>
