<svg width="176" height="39" viewBox="0 0 176 39" fill="none" xmlns="http://www.w3.org/2000/svg">
<path d="M21.4784 0.189403C18.5222 0.986903 15.9509 3.7094 15.3047 6.69315C15.2084 7.2019 15.1122 7.90315 15.1122 8.26065V8.92065H15.9097C18.5909 8.92065 21.3822 6.5419 22.4547 3.3794C22.7434 2.4994 22.9772 0.849403 22.8672 0.368153C22.7709 -0.0718475 22.5784 -0.0993475 21.4784 0.189403Z" fill="#915C46"/>
<path d="M21.0385 9.36117C20.5572 9.42992 19.2372 9.81492 18.096 10.2274C16.941 10.6537 15.7997 10.9837 15.511 10.9837C15.2085 10.9837 14.1635 10.6812 13.146 10.3099C10.176 9.20992 8.8972 9.11367 6.7247 9.84242C3.32845 10.9699 0.935952 13.9262 0.193452 17.9274C0.0147018 18.8899 -0.0265482 19.6874 0.0147018 21.5024C0.0834518 24.0599 0.427202 25.9437 1.2522 28.2949C2.7097 32.5024 5.83095 36.9987 8.03095 38.0849C8.8422 38.4837 8.99345 38.5112 10.0522 38.4562C11.001 38.4149 11.4272 38.3049 12.5685 37.8374C15.291 36.7237 16.5972 36.7099 19.1822 37.7549C20.7085 38.3599 20.901 38.4012 22.056 38.4149C23.1422 38.4149 23.3897 38.3737 24.1047 38.0162C24.5447 37.7962 25.2735 37.2599 25.6997 36.8337C26.6072 35.9262 28.1885 33.6987 29.0685 32.0899C29.6185 31.0724 30.6497 28.6387 30.6497 28.3224C30.6497 28.2537 30.3197 28.0062 29.9072 27.7862C28.2572 26.8512 26.7172 25.0087 26.0985 23.2212C25.7272 22.1349 25.5897 19.8112 25.8372 18.6287C26.1122 17.2674 27.006 15.7137 28.161 14.5449C28.7385 13.9674 29.3297 13.4312 29.481 13.3487C29.7285 13.2112 29.7285 13.1837 29.3435 12.6337C27.7622 10.3512 24.1185 8.92117 21.0385 9.36117Z" fill="#915C46"/>
<path d="M133.183 9.47074C130.763 9.89699 129.031 10.777 127.436 12.3582C125.703 14.0632 124.768 15.9332 124.191 18.7795C123.847 20.512 123.833 27.2357 124.191 29.092C125.139 34.2345 128.137 37.3832 132.894 38.2907C134.723 38.6345 137.817 38.497 139.453 38.0157C141.639 37.3695 143.303 36.3382 144.472 34.9082C145.696 33.4232 146.562 30.9895 146.562 29.0645V28.3082H143.743H140.924V28.8445C140.924 29.1332 140.801 29.7932 140.636 30.3157C140.402 31.0857 140.209 31.3745 139.563 32.0207C138.491 33.0932 137.803 33.327 135.631 33.327C134.104 33.327 133.912 33.2995 133.128 32.9282C131.519 32.1857 130.598 30.852 130.103 28.5557C129.759 26.947 129.759 20.7732 130.117 19.2332C130.763 16.3457 132.262 14.7645 134.696 14.4207C137.913 13.967 140.622 15.892 140.883 18.8345L140.966 19.6457H143.784H146.603L146.521 18.422C146.314 15.6445 144.981 13.087 142.932 11.5607C141.928 10.8182 140.223 10.007 138.999 9.67699C137.982 9.40199 134.269 9.27824 133.183 9.47074Z" fill="#915C46"/>
<path d="M36.4106 10.5983C36.5481 11.0795 38.2806 17.4458 40.2743 24.7608L43.8906 38.0708H46.8193C49.0881 38.0708 49.7481 38.0296 49.8031 37.8921C49.8443 37.7958 50.9718 33.5196 52.3193 28.4045C53.6668 23.2895 54.7943 19.137 54.8356 19.1783C54.8768 19.2195 56.0318 23.4683 57.3931 28.6245L59.8681 38.0021L62.8656 38.0433C64.5018 38.0571 65.8493 38.0433 65.8493 38.0021C65.8493 37.9471 67.5268 31.7595 69.5618 24.252C71.6106 16.7308 73.3156 10.392 73.3568 10.1583L73.4531 9.7458H70.3456H67.2518L66.9768 10.8733C66.8393 11.5058 65.8218 15.9608 64.7356 20.7733C63.6493 25.5858 62.7143 29.4908 62.6731 29.4358C62.6181 29.3808 61.5043 24.9258 60.1981 19.5495L57.8056 9.7458H54.8356C51.8518 9.7458 51.8518 9.7458 51.7831 10.0483C50.9443 13.6645 47.0806 29.367 47.0256 29.4358C46.9706 29.4908 46.0493 25.627 44.9631 20.842C43.8768 16.0708 42.8731 11.6158 42.7218 10.942L42.4331 9.7458H39.2981H36.1631L36.4106 10.5983Z" fill="#915C46"/>
<path d="M78.156 23.702C75.736 31.3883 73.7422 37.7546 73.7147 37.8646C73.6735 38.0433 74.086 38.0708 76.6022 38.0708H79.531L80.3422 35.1833C80.7822 33.5883 81.236 31.9795 81.346 31.6083L81.5522 30.9208H85.8285H90.1185L91.0947 34.4683L92.0572 38.0021L95.1785 38.0433C97.131 38.0571 98.2997 38.0296 98.2997 37.9471C98.2997 37.8646 96.3472 31.6083 93.9685 24.0183C91.576 16.4283 89.596 10.117 89.5547 9.97955C89.486 9.75955 89.1972 9.7458 86.021 9.7458H82.556L78.156 23.702ZM87.3685 20.9795C88.166 23.8808 88.8122 26.3008 88.8122 26.3833C88.8122 26.4658 87.7397 26.5208 85.7735 26.5208C83.4085 26.5208 82.7485 26.4795 82.8035 26.342C82.831 26.2595 83.5322 23.7845 84.3572 20.8558C85.1822 17.927 85.8697 15.5758 85.8835 15.6308C85.8972 15.6858 86.571 18.092 87.3685 20.9795Z" fill="#915C46"/>
<path d="M98.1622 12.2208V14.6958H102.218H106.275V26.3833V38.0708H109.231H112.187V26.3833V14.6958H116.243H120.3V12.2208V9.7458H109.231H98.1622V12.2208Z" fill="#915C46"/>
<path d="M152.475 23.9083V38.0708H155.431H158.387V32.0208V25.9708H163.956H169.525V32.0208V38.0708H172.412H175.3V23.9083V9.7458H172.412H169.525V15.3833V21.0208H163.956H158.387V15.3833V9.7458H155.431H152.475V23.9083Z" fill="#915C46"/>
</svg>
