<svg width="100" height="60" viewBox="0 0 100 60" fill="none" xmlns="http://www.w3.org/2000/svg">
<path d="M40.7422 0.917969C38.3008 1.48438 35.332 3.67188 34.0234 5.82031C32.4023 8.53516 31.8945 12.2852 32.7344 15.293C32.8516 15.7227 32.8125 15.7422 31.3281 15.7422C30.4688 15.7422 27.8906 15.8398 25.5664 15.957C16.0156 16.4648 11.0156 14.9805 5.70312 10.0195C4.17969 8.57422 4.08203 8.51562 3.16406 8.51562C2.42188 8.51562 2.12891 8.61328 1.77734 8.98438C1.21094 9.58984 1.07422 10.1367 0.546875 14.082C0.175781 16.9531 0.117188 18.2812 0.0976562 23.9453C0.0976562 31.1133 0.253906 32.832 1.36719 37.1289C2.07031 39.8438 2.71484 41.5039 3.94531 43.9453C7.1875 50.2148 12.4805 54.3359 19.3945 55.918C21.2695 56.3477 26.8945 56.3477 31.3672 55.918C35.4688 55.5078 37.6172 55.5078 40.0391 55.8594C42.5977 56.25 44.8438 56.9922 47.2461 58.2422C49.8438 59.5898 50.1758 59.5898 52.5586 58.3398C56.0156 56.5039 59.7656 55.5859 63.6719 55.5859C64.6875 55.5859 67.5586 55.7617 70.0195 55.9766C75.2148 56.4258 76.582 56.4453 79.0039 56.1523C86.2891 55.2539 92.5391 50.7812 96.0547 43.9258C97.7539 40.6055 98.7891 37.2852 99.5312 32.832C99.9609 30.1953 100.117 21.6797 99.8242 18.0078C99.5508 14.9023 98.9062 9.98047 98.7109 9.62891C98.2422 8.80859 97.7539 8.51562 96.8359 8.51562C95.918 8.51562 95.8203 8.57422 94.2969 10.0195C88.9844 14.9805 83.9062 16.4844 74.3555 15.957C72.0703 15.8398 69.5312 15.7422 68.6719 15.7422C67.1875 15.7422 67.1484 15.7227 67.2656 15.293C67.5977 14.082 67.7539 11.9336 67.5781 10.5859C67.2266 7.73438 66.2695 5.80078 64.2773 3.82812C62.0898 1.66016 59.7266 0.703125 56.543 0.703125C54.4531 0.703125 53.125 1.03516 51.3086 1.95312L49.9805 2.63672L48.7695 1.97266C48.1055 1.62109 47.0117 1.17188 46.3672 1.01562C45.0391 0.683594 41.9922 0.625 40.7422 0.917969ZM45.7031 5.11719C46.1914 5.27344 47.0312 5.74219 47.5586 6.17188C49.5703 7.77344 50.332 7.83203 51.8945 6.54297C53.1055 5.54688 54.1992 5.01953 55.5078 4.80469C58.5352 4.31641 61.9727 6.34766 63.125 9.29688C64.5703 13.0859 62.3242 18.4961 57.1484 23.6719C55.1953 25.625 52.8711 27.4414 51.1133 28.3398L50 28.9258L48.8867 28.3398C46.0938 26.8945 42.168 23.3594 39.9219 20.332C36.0156 15.0195 35.3906 10.4102 38.1641 7.24609C40.0781 5.03906 42.9102 4.23828 45.7031 5.11719ZM6.36719 15.8789C8.00781 17.0312 11.2891 18.5742 13.3203 19.1406C16.7188 20.1172 19.6289 20.2539 29.0039 19.9609L34.4727 19.7852L35.3711 21.1328C38.418 25.7031 43.0078 29.9609 47.2461 32.1094C49.5312 33.2617 50.293 33.3008 52.2461 32.3828C56.4062 30.4102 61.3477 25.9766 64.3945 21.4648L65.5273 19.7852L70.6055 19.9609C80.5664 20.3125 83.8086 20.0977 87.5391 18.8672C89.6094 18.1641 92.2461 16.8555 93.9453 15.6641C94.8047 15.0586 95.2539 14.8633 95.332 15.0195C95.4102 15.1562 95.5664 16.5625 95.7031 18.1836C96.0547 22.4023 95.8789 29.7852 95.3516 32.7539C94.1406 39.5117 92.0508 43.8672 88.3789 47.3438C84.043 51.4453 78.3008 52.9297 70.7422 51.9336C67.207 51.4844 60.6445 51.4648 58.3398 51.9336C56.1133 52.3828 53.4961 53.2422 51.582 54.1602L50.0391 54.9023L48.418 54.1406C46.3281 53.1836 43.8477 52.3828 41.6602 51.9336C39.2773 51.4648 32.9883 51.4648 29.1016 51.9531C21.1914 52.9492 15.3125 51.2695 11.0156 46.7773C5.44922 40.918 3.08594 30.6836 4.31641 17.5977C4.43359 16.4062 4.57031 15.293 4.60938 15.0977C4.72656 14.7266 4.6875 14.707 6.36719 15.8789Z" fill="#915C46"/>
<path d="M25.0972 29.1407C23.1636 29.6095 20.8004 30.8985 19.3746 32.2657C18.1246 33.4571 18.105 33.4962 18.2027 34.336C18.359 35.6446 19.4136 37.9688 20.566 39.4728C23.2222 42.9493 27.0894 44.8438 31.5425 44.8438C35.0582 44.8438 38.3785 43.6134 40.7222 41.4454L41.855 40.3907L41.7574 39.2384C41.6988 38.379 41.4644 37.6368 40.8199 36.3282C40.1168 34.9024 39.648 34.2774 38.1832 32.8321C35.3121 29.9415 32.5582 28.8282 28.4175 28.8478C27.2457 28.8478 25.7418 28.9845 25.0972 29.1407ZM30.9566 33.1642C32.2652 33.4962 34.0035 34.4728 35.1168 35.5274C36.1129 36.4845 37.3043 38.2032 37.3043 38.7306C37.3043 38.8673 36.9136 39.1993 36.4254 39.4923C33.4761 41.211 29.316 41.172 26.5035 39.3946C25.234 38.5743 23.984 37.2657 23.2613 36.0353C22.9293 35.4493 22.6558 34.922 22.6558 34.8438C22.6558 34.7657 23.3785 34.3556 24.2769 33.9064C26.523 32.7931 28.5738 32.5587 30.9566 33.1642Z" fill="#915C46"/>
<path d="M68.0664 29.1406C67.4219 29.2969 66.1524 29.7852 65.2344 30.2344C63.8867 30.8984 63.2422 31.3867 61.8164 32.832C60.3516 34.2774 59.8828 34.9024 59.1797 36.3281C58.5352 37.6367 58.3008 38.3789 58.2422 39.2383L58.1445 40.3906L59.1797 41.3477C61.5234 43.5352 64.2578 44.6484 67.7149 44.8047C74.0039 45.0586 79.3164 41.6406 81.3672 35.9375C82.1094 33.9258 82.0313 33.6133 80.5859 32.2266C79.1602 30.8594 76.7969 29.5899 74.8047 29.1211C73.2031 28.75 69.6484 28.7695 68.0664 29.1406ZM73.9258 33.1641C74.7656 33.3789 77.3438 34.6484 77.3438 34.8633C77.3438 34.9219 77.0703 35.4492 76.7383 36.0352C74.1406 40.5469 68.1055 42.1289 63.5742 39.4922C63.0859 39.1992 62.6953 38.8672 62.6953 38.7305C62.6953 38.2031 63.8867 36.4844 64.9219 35.5078C67.3242 33.2227 70.6836 32.3633 73.9258 33.1641Z" fill="#915C46"/>
</svg>
