<svg width="80" height="91" viewBox="0 0 80 91" fill="none" xmlns="http://www.w3.org/2000/svg">
<path d="M24.3135 0.328453C21.5066 0.649852 18.914 1.76403 17.3713 3.28532C16.8999 3.77814 15.9571 4.44236 15.3143 4.80661C10.879 7.18497 8.90774 12.3274 8.88632 21.498V23.8549L8.26494 24.2834C7.0222 25.1191 6.74365 25.9547 6.74365 29.0187C6.74365 32.0827 6.97935 32.8755 8.22209 34.2897C8.97202 35.1467 10.8147 36.1752 11.6075 36.1752C12.0146 36.1752 12.1003 36.2823 12.1003 36.7966C12.1003 37.8679 13.1074 41.4247 13.9001 43.1389C15.6357 46.8671 18.9568 50.4025 22.4494 52.1595C23.0065 52.438 23.4564 52.7594 23.4564 52.8666C23.4564 52.9523 22.9422 53.038 22.3208 53.038C21.0138 53.038 19.7068 53.6379 18.914 54.5593C18.5497 54.9878 17.9712 55.3092 17.1141 55.5449C13.5145 56.5734 10.5576 58.2018 7.9864 60.5801C5.7366 62.6585 4.3653 64.5012 3.0797 67.1367C1.32272 70.7149 1.04417 72.2362 0.422797 81.664C-0.112869 89.6775 -0.112869 89.8489 0.27281 90.3846L0.679916 90.9203L38.2622 90.9845C64.017 91.0274 76.0802 90.9845 76.6159 90.8131C77.7515 90.4917 78.8871 89.1633 79.0585 87.9634C79.3157 86.2493 78.3515 84.428 76.873 83.8066C76.4659 83.6566 76.1231 83.3995 76.0802 83.2495C76.0374 83.0995 75.8874 82.371 75.7374 81.5997C74.966 77.4001 71.9449 73.2004 68.0667 70.8864C66.7597 70.115 64.4241 69.2151 62.86 68.8723C62.3458 68.7651 62.2815 68.6366 62.1958 67.4795C62.1315 66.5153 61.9601 66.0225 61.5101 65.4226C60.8245 64.5227 59.4746 63.837 58.4247 63.8156C57.8247 63.8156 57.4605 63.537 55.7678 61.78C52.8323 58.716 49.2969 56.5519 45.5901 55.5877C44.7116 55.3521 44.1546 55.0307 43.4689 54.3664C42.4618 53.3808 41.0048 52.8666 39.8049 53.0594C38.6693 53.2308 38.9907 52.8451 40.662 51.9881C45.7615 49.3526 49.7469 43.4817 50.4111 37.6536L50.5611 36.368L51.6753 35.9824C54.8036 34.9325 56.1749 32.4255 55.9821 28.1402C55.8964 25.9761 55.4464 24.9048 54.3322 24.262L53.7323 23.8977L53.6037 20.3409C53.518 17.7912 53.368 16.3127 53.0466 15.1343C51.0754 7.6135 45.3759 2.12829 37.9194 0.585572C36.3124 0.242746 35.1125 0.199893 30.5272 0.22132C27.5275 0.242746 24.7206 0.2856 24.3135 0.328453ZM38.1337 3.9067C43.8117 5.53512 48.2042 9.92758 49.8112 15.6056C50.154 16.7841 50.304 18.0911 50.3897 20.5123L50.5183 23.812L48.8256 23.6621C44.9259 23.3192 37.5766 21.9265 32.7984 20.6195C26.2205 18.8196 22.7065 17.2126 20.8209 15.1557C19.8996 14.1915 19.4925 13.8915 19.0211 13.8915C18.1855 13.8915 16.4713 15.2414 15.4643 16.677C14.5001 18.0697 14.0501 19.4839 13.8573 21.8622L13.7073 23.6406L12.9145 23.7049L12.1003 23.7692V21.6694C12.1003 13.3773 13.643 9.24193 17.3284 7.46352C18.1212 7.09926 18.914 6.52075 19.3211 6.02793C20.1782 4.93517 21.8709 4.05668 23.735 3.69243C26.0919 3.2639 36.3981 3.41388 38.1337 3.9067ZM20.1782 18.9696C24.4206 21.8836 33.6984 24.7334 43.7046 26.1904C45.0116 26.3832 46.3829 26.5975 46.7686 26.6618L47.4543 26.7689V31.1399C47.4543 36.1538 47.24 38.125 46.4044 40.4605C45.5473 42.9032 44.5831 44.403 42.5261 46.46C39.5907 49.4169 36.2267 50.8953 32.0271 51.1096C30.2058 51.1953 29.413 51.131 27.9132 50.7668C21.8923 49.3312 17.3498 44.8101 15.7214 38.6393C15.3572 37.2251 15.25 36.0466 15.1643 31.7613C15.0358 26.6189 15.0358 26.5761 15.4857 26.4475C16.4499 26.1261 16.857 25.1619 17.0284 22.7193C17.1356 21.4551 17.307 20.1481 17.4355 19.8053C17.6927 19.1839 18.4854 17.9626 18.6569 17.9626C18.6997 17.9626 19.3854 18.4125 20.1782 18.9696ZM12.1003 29.9615C12.1003 31.6113 12.0146 32.9612 11.9075 32.9612C11.5646 32.9612 10.6004 32.0613 10.2576 31.4399C9.89337 30.7114 9.61482 28.3331 9.82909 27.5188C9.95765 27.0046 10.0648 26.9618 11.029 26.9618H12.1003V29.9615ZM52.7681 28.4616C52.8109 29.233 52.7681 30.1543 52.7038 30.54C52.5752 31.2685 51.7396 32.4041 51.0754 32.7684C50.6897 32.9612 50.6683 32.8541 50.6683 29.9615V26.9403L51.6967 27.0046L52.7038 27.0689L52.7681 28.4616ZM31.2771 54.2807C32.5842 54.2807 34.1483 54.195 34.7697 54.1093C35.7553 53.9593 35.8839 53.9807 35.8839 54.3236C35.8839 54.5378 35.541 54.9021 35.0697 55.1592C34.3626 55.5663 34.2126 55.5877 33.6341 55.3306C32.7342 54.9449 29.713 54.9449 28.9631 55.352C28.406 55.6306 28.2774 55.6306 27.5061 55.1806C27.0132 54.9021 26.6704 54.5378 26.6704 54.3236C26.6704 53.9593 26.7776 53.9379 27.806 54.1093C28.406 54.195 29.9915 54.2807 31.2771 54.2807ZM24.9134 57.4519L26.6704 58.4803V61.2015L24.742 62.2943C22.5565 63.537 21.9566 63.6227 21.3352 62.8299C20.9495 62.3371 20.8852 61.9515 20.8852 59.9373C20.8852 57.3661 21.0995 56.6376 21.9351 56.3591C22.6208 56.1234 22.7065 56.1448 24.9134 57.4519ZM41.3048 56.7876C41.6048 57.1519 41.6691 57.6447 41.6691 59.7445C41.6691 61.9729 41.6262 62.3157 41.2191 62.8299C40.9834 63.1299 40.5763 63.387 40.3192 63.387C40.0835 63.387 38.9693 62.8942 37.8765 62.2729L35.8624 61.1587L35.991 58.4161L38.0265 57.259C40.1478 56.0377 40.5977 55.9734 41.3048 56.7876ZM32.627 59.5945C32.7127 61.1372 32.477 61.4586 31.2986 61.4586C30.1201 61.4586 29.8844 61.1801 29.8844 59.8516C29.8844 58.4589 30.1415 58.2018 31.4914 58.2875L32.5627 58.3518L32.627 59.5945ZM17.7141 61.073C17.7998 63.687 18.2926 64.8012 19.771 65.8511C20.6281 66.4296 20.8638 66.4939 22.5137 66.5153L24.3349 66.5368L29.6487 74.8503L29.6701 81.3211V87.8134H12.1003V61.4801L12.7431 61.0301C13.5787 60.4302 16.8356 58.9089 17.2641 58.8874C17.5641 58.8874 17.6284 59.2303 17.7141 61.073ZM46.7472 59.4231C47.4543 59.7017 48.6327 60.2802 49.3612 60.7087L50.6683 61.4801V69.815L49.5541 70.3721C48.0328 71.122 45.5901 73.0076 44.6474 74.1432C42.6547 76.543 41.5405 78.8356 40.8977 81.7497C40.5334 83.5066 40.512 83.5281 39.5907 83.978C38.4765 84.5137 37.598 85.8636 37.598 87.0206V87.8134H32.8841V75.0431L35.6268 70.7364L38.3479 66.4082L39.6764 66.5368C41.4334 66.7082 42.6761 66.2368 43.7046 65.0369C44.6474 63.9441 44.8831 63.1085 44.8831 60.7516C44.8831 59.3374 44.9473 58.8874 45.1616 58.8874C45.333 58.8874 46.0401 59.1231 46.7472 59.4231ZM29.1345 64.3512C30.2701 64.7583 32.1985 64.7583 33.3984 64.3512C34.2983 64.0513 34.4269 64.0513 34.9197 64.3727C35.2196 64.5655 35.4553 64.7583 35.4553 64.8226C35.4553 64.9512 31.7914 70.7364 31.5128 71.0363C31.32 71.2506 30.8058 70.5864 29.3487 68.2937C28.2774 66.6225 27.3561 65.1226 27.2489 64.9726C27.1418 64.7798 27.2918 64.5869 27.6775 64.3727C28.0203 64.2013 28.2774 64.0513 28.2774 64.0513C28.2774 64.0298 28.6631 64.1798 29.1345 64.3512ZM8.88632 76.1359V87.8134H3.31539V87.1063C3.31539 86.7421 3.50823 83.6138 3.74392 80.1855C4.21531 73.3504 4.51528 71.6577 5.77945 69.0222C6.67937 67.0938 8.43636 64.4584 8.82204 64.4584C8.86489 64.4584 8.88632 69.7079 8.88632 76.1359ZM54.5893 66.6439C54.4179 67.1367 54.3322 67.8224 54.3965 68.1438C54.4822 68.5937 54.4393 68.7437 54.2036 68.7437C53.9465 68.7437 53.8822 68.358 53.8822 66.6439L53.9037 64.5655L54.3965 65.144C54.8893 65.7011 54.9107 65.744 54.5893 66.6439ZM58.7675 67.2867C59.1318 67.6509 59.0889 68.2509 58.6818 68.4009C58.1461 68.6151 57.9747 68.5509 57.739 68.1223C57.5891 67.8009 57.6105 67.6295 57.8676 67.3724C58.2747 66.9653 58.4247 66.9439 58.7675 67.2867ZM62.0886 72.0434C66.9096 72.9647 71.0021 76.6715 72.3949 81.364C72.5877 82.0068 72.7377 82.7567 72.7377 83.0353V83.5281H43.8117L43.9403 82.9281C44.4974 80.4641 45.2045 78.8571 46.5329 77.0572C48.2042 74.7431 51.4182 72.7076 54.3322 72.0863C56.1535 71.6791 60.096 71.6577 62.0886 72.0434ZM75.6731 86.9778C75.8017 87.1063 75.866 87.3634 75.8017 87.5134C75.716 87.7705 72.8877 87.8134 58.3818 87.8134C46.5329 87.8134 41.0048 87.7491 40.9191 87.5991C40.8334 87.4706 40.8334 87.2349 40.8977 87.0635C41.0048 86.7849 43.3832 86.7421 58.2318 86.7421C70.6593 86.7421 75.5017 86.8064 75.6731 86.9778Z" fill="#915C46"/>
<path d="M22.0419 28.4835C21.6991 28.8477 21.6348 29.2763 21.6348 30.7547C21.6348 32.4688 21.6563 32.5974 22.2348 33.0902C22.9633 33.7116 23.6489 33.7544 24.3989 33.1545C24.9345 32.7474 24.956 32.6188 24.956 30.7976C24.956 29.1691 24.8917 28.8263 24.5274 28.4621C23.9275 27.8621 22.599 27.8835 22.0419 28.4835Z" fill="#915C46"/>
<path d="M38.0262 28.4621C37.6619 28.8264 37.5977 29.1692 37.5977 30.7119C37.5977 32.3832 37.6405 32.5975 38.1333 33.0688C38.6476 33.5831 39.3546 33.7331 40.0617 33.4759C40.6617 33.2402 41.0259 32.1903 41.0259 30.6476C41.0259 28.7407 40.5545 28.0336 39.2904 28.0336C38.7333 28.0336 38.3047 28.1836 38.0262 28.4621Z" fill="#915C46"/>
<path d="M25.1712 38.4678C23.9285 38.9178 23.7785 40.2034 24.7212 41.8532C27.5067 46.6956 34.2775 46.9956 37.5344 42.4317C38.9057 40.5462 38.9271 39.0892 37.5986 38.5321C36.7416 38.1678 35.9274 38.6178 35.306 39.7962C34.6418 41.0604 34.2347 41.4889 33.2276 42.0032C31.0207 43.1174 28.2995 42.046 27.2067 39.6034C26.9496 39.0463 26.6282 38.7035 26.1783 38.5535C25.8354 38.4249 25.5355 38.3178 25.514 38.3392C25.4926 38.3392 25.3426 38.4035 25.1712 38.4678Z" fill="#915C46"/>
<path d="M30.2277 65.766C29.4778 66.3659 29.4564 67.4801 30.2063 68.2086C31.2562 69.2585 32.8846 68.5514 32.8846 67.0302C32.8846 66.3874 32.7561 66.1088 32.3275 65.766C32.0061 65.5089 31.5347 65.316 31.2776 65.316C31.0205 65.316 30.5491 65.5089 30.2277 65.766Z" fill="#915C46"/>
</svg>
