<svg width="50" height="96" viewBox="0 0 50 96" fill="none" xmlns="http://www.w3.org/2000/svg">
<path d="M16.6603 0.734398C15.9181 1.0469 15.8204 1.53518 15.8204 5.30471V8.93752H12.6368C8.67199 8.93752 8.69152 8.91799 8.82824 11.2617C9.04308 15.0117 11.8751 17.961 15.8204 18.5469L17.1876 18.7422V21.2813C17.1876 25.4414 17.6759 28.7617 19.1212 34.2305C19.4142 35.4024 19.7267 36.8086 19.7853 37.3555L19.8829 38.3321H16.9337C14.4337 38.3321 13.7306 38.4102 12.4415 38.7813C9.45324 39.6407 6.56261 41.4961 4.68761 43.7617C3.43761 45.2657 1.89464 48.4297 1.48449 50.2852C1.11339 52.0039 1.09386 55.2657 1.44542 56.9649L1.69933 58.2149L1.11339 59.1914C0.371205 60.3633 0.175892 62.1407 0.625111 63.4688C0.800892 63.9375 2.03136 66.0469 3.37902 68.1953L5.83995 72.0625L4.76574 73.4688C2.53917 76.3399 1.3673 79.6992 1.3673 83.1563C1.3673 88 3.75011 91.9453 7.96886 94.0742C10.586 95.3828 10.2345 95.3633 24.6095 95.3633C39.1407 95.3633 38.6915 95.4024 41.504 93.9375C44.1407 92.5508 46.0548 90.3047 47.1876 87.2578C47.6759 85.9492 47.7345 85.5391 47.7345 83.2539C47.754 80.2071 47.3439 78.5469 45.9376 75.8516C44.4142 72.9414 42.3634 70.9883 38.3985 68.6836C37.0704 67.9024 35.4689 66.2422 34.7657 64.9531L34.297 64.0352L34.7071 63.586C36.3673 61.7696 36.0939 58.5274 34.1798 57.2578C33.4767 56.7891 33.4571 56.7305 33.34 55.3242C33.2618 54.5039 33.1056 53.4297 32.9884 52.9219C32.6564 51.5742 31.4259 49.0352 30.5079 47.8047C29.6876 46.75 29.6876 46.7305 29.6876 45.0703V43.3907L31.3087 43.6446C32.1876 43.7813 34.1407 43.8985 35.6446 43.8985C38.711 43.918 40.4103 43.6446 42.0704 42.8047C44.7853 41.4571 46.7775 38.0782 47.1681 34.1914C47.2853 32.8828 47.3439 32.7461 47.9689 32.2774C49.297 31.2617 49.4728 30.6172 49.5704 26.1836C49.6485 22.3946 49.6485 22.2188 49.2189 21.3203C48.9064 20.6953 48.4962 20.2461 47.9298 19.8946C47.2071 19.4649 47.09 19.2891 47.0704 18.7422C47.0509 16.9258 44.5509 16.8477 44.2189 18.6641C44.1212 19.1719 43.8282 19.6016 43.2423 20.1289C42.0314 21.1836 41.836 21.9258 41.6993 25.9492C41.5431 30.0899 41.6798 30.7539 42.8517 31.8867C43.2814 32.3164 43.8282 32.7657 44.0235 32.8828C44.3751 33.0782 44.3946 33.1758 44.1798 34.4844C43.9064 36.0664 43.3009 37.5508 42.422 38.7617C40.7814 40.9688 36.7384 41.5938 30.5665 40.5782C29.922 40.4805 29.3556 40.3828 29.3165 40.3828C29.2775 40.3828 29.297 39.4453 29.3556 38.2735C29.4532 36.7305 29.6876 35.4219 30.2735 33.2539C31.3868 29.0938 31.836 26.2032 31.9728 22.1797L32.09 18.7422L33.4181 18.5469C35.8009 18.1953 37.754 16.9844 39.0626 15.0899C40.254 13.3516 40.8204 10.3633 40.1173 9.36721C39.8243 8.95705 39.7071 8.93752 36.6212 8.93752H33.4181L33.3595 5.12893C33.3009 1.78909 33.2618 1.28127 32.9493 0.988304C32.6368 0.656273 31.9923 0.636742 24.8439 0.597679C20.586 0.578148 16.8946 0.636742 16.6603 0.734398ZM30.4689 6.10549V8.74221H24.6095H18.7501V6.10549V3.46877H24.6095H30.4689V6.10549ZM37.3048 12.0235C37.3048 13.1563 35.254 15.1289 33.5939 15.5782C33.2032 15.6953 29.4337 15.7735 24.59 15.7735C15.3126 15.7735 14.961 15.7344 13.5157 14.4844C12.715 13.8203 12.3243 13.2344 11.9142 12.1602L11.7189 11.6719H24.5118C36.7189 11.6719 37.3048 11.6914 37.3048 12.0235ZM29.1017 21.0469C29.1017 24.9336 28.4962 28.9375 27.3439 32.8633C26.8751 34.4649 26.3673 37.5508 26.3673 38.8789V39.8164L25.6642 39.6797C25.2735 39.6016 24.5118 39.4453 23.9454 39.3282C22.8126 39.0742 22.9103 39.2696 22.4806 35.9883C22.3829 35.1289 22.0509 33.625 21.7775 32.668C20.6056 28.6641 20.1173 25.3633 20.1173 21.3985V18.7032H24.6095H29.1017V21.0469ZM46.2501 22.336C46.6603 22.6289 46.6798 22.7461 46.6798 25.8321C46.6798 29.1524 46.5431 29.9336 45.879 30.1289C45.3712 30.3047 44.7462 29.9141 44.6095 29.3282C44.5314 29.0547 44.5314 27.4532 44.6095 25.7735C44.7267 23.0196 44.7853 22.668 45.1564 22.3555C45.6446 21.9453 45.7032 21.9453 46.2501 22.336ZM18.7892 41.2813L19.6681 41.3985L19.5704 44.0742L19.4923 46.7305L18.7696 47.7071C17.0118 50.0508 16.0743 52.5117 15.879 55.0899C15.7618 56.6719 15.7618 56.6914 15.0196 57.2188C13.1446 58.5469 12.7931 61.3985 14.2775 63.2735L14.8634 64.0156L14.4532 64.7969C14.2384 65.2266 14.0235 65.5781 13.9845 65.5781C13.9454 65.5781 12.8907 63.9571 11.6212 61.9649C8.76964 57.4336 8.00792 56.8086 5.4298 56.7891C4.8048 56.7891 4.29699 56.7305 4.29699 56.6328C4.27745 56.5547 4.19933 55.8516 4.1212 55.0703C3.67199 51.1836 5.13683 47.2969 8.08605 44.5235C9.47277 43.2344 11.9142 41.8867 13.6134 41.4766C14.8243 41.1836 17.3439 41.086 18.7892 41.2813ZM25.0001 42.4922L26.6603 42.8438L26.7189 44.3477L26.7775 45.8516H24.5118H22.2267L22.3634 44.3282C22.5196 42.4141 22.6173 42.1407 23.0079 42.1407C23.1837 42.1602 24.0821 42.3164 25.0001 42.4922ZM28.1251 49.5039C29.336 50.9883 30.4493 53.9961 30.4689 55.8516V56.3985H24.6095H18.7501V55.6563C18.7696 53.8008 19.8634 50.8907 21.1134 49.4649L21.7189 48.7813H24.6095H27.5196L28.1251 49.5039ZM32.5978 59.836C33.1251 60.5 33.1056 60.7539 32.5392 61.418L32.0704 61.9649L25.1564 62.0235C21.3673 62.0625 17.9689 62.0235 17.6173 61.9649C16.3087 61.7305 15.8204 60.6367 16.6407 59.7774L17.0509 59.3282H24.629H32.2071L32.5978 59.836ZM6.9923 60.4414C7.36339 60.8516 8.61339 62.6875 9.76574 64.543C11.6993 67.6094 11.8556 67.9219 11.5626 68.1758C11.0353 68.625 8.35949 70.0899 8.16417 70.0313C8.06652 69.9922 6.9337 68.3125 5.66417 66.2617C2.94933 61.9844 2.83214 61.5352 3.98449 60.3828C4.53136 59.836 4.78527 59.7188 5.48839 59.7188C6.19152 59.7188 6.40636 59.8164 6.9923 60.4414ZM32.2853 66.3789C33.3009 68.4883 35.0196 70.1875 37.5782 71.6328C39.9415 72.961 41.4845 74.3281 42.754 76.2422C44.4923 78.8203 45.2931 82.4727 44.7267 85.168C44.1993 87.7266 42.461 90.0508 40.1173 91.3008C37.7931 92.5508 37.6368 92.5508 23.965 92.4922C11.6993 92.4336 11.6212 92.4336 10.4493 91.9844C8.00792 91.0664 6.23058 89.4649 5.15636 87.1797C3.73058 84.1914 3.96495 80.8125 5.82042 77.1992C6.85558 75.1875 9.31652 72.8047 11.6407 71.5742C14.2579 70.168 16.6798 67.6094 17.3829 65.461L17.6173 64.7969L24.5704 64.8164H31.5431L32.2853 66.3789Z" fill="#915C46"/>
</svg>
