<svg width="94" height="87" viewBox="0 0 94 87" fill="none" xmlns="http://www.w3.org/2000/svg">
<path d="M45.1246 0.277448C44.5778 0.648542 43.1325 3.07042 42.859 4.00792C42.527 5.25792 42.9567 6.6837 43.9918 7.73839C44.4606 8.20714 44.8512 8.69542 44.8512 8.83214C44.8512 8.94932 44.4996 9.63292 44.07 10.336C43.6403 11.0392 43.2887 11.8595 43.2887 12.1524C43.2887 12.9728 44.07 13.6564 45.027 13.6564C45.9254 13.6564 46.3746 13.2071 47.4879 11.2149C48.0348 10.2384 48.1911 9.7501 48.1911 8.92979C48.2106 7.54307 47.9371 6.89854 46.8629 5.80479L45.9645 4.88682L46.7653 3.65635C47.195 2.97276 47.6246 2.19151 47.6832 1.89854C47.82 1.35167 47.527 0.629011 47.0192 0.238386C46.5895 -0.0936456 45.6129 -0.0741143 45.1246 0.277448Z" fill="#915C46"/>
<path d="M26.4528 7.99229C26.277 8.10948 25.7106 8.8712 25.1832 9.69151C24.3629 11.0196 24.2457 11.3517 24.1871 12.4845C24.0895 14.0079 24.3825 14.6915 25.5543 15.8634C26.0036 16.2931 26.2575 16.7032 26.1598 16.8399C26.0817 16.9767 25.7106 17.5626 25.3395 18.1485C24.109 20.0821 24.5778 21.5665 26.3746 21.4298C27.0582 21.3712 27.2536 21.254 27.8981 20.3946C29.07 18.8517 29.5192 17.8165 29.4996 16.586C29.4801 15.336 29.1481 14.6134 28.1715 13.6759C27.7809 13.3048 27.4684 12.8751 27.4684 12.7189C27.4684 12.5821 27.82 11.879 28.2692 11.1564C28.9137 10.0821 29.0309 9.73057 28.9528 9.16417C28.8942 8.79307 28.6598 8.32432 28.4254 8.12901C27.9762 7.75792 26.9801 7.69932 26.4528 7.99229Z" fill="#915C46"/>
<path d="M63.9528 7.99229C63.777 8.10948 63.2106 8.8712 62.6832 9.69151C61.8629 11.0196 61.7457 11.3517 61.6872 12.4845C61.5895 14.0079 61.8825 14.6915 63.0543 15.8634C63.5036 16.2931 63.7575 16.7032 63.6598 16.8399C63.5817 16.9767 63.2106 17.5626 62.8395 18.1485C61.609 20.0821 62.0778 21.5665 63.8747 21.4298C64.5582 21.3712 64.7536 21.254 65.3981 20.3946C66.57 18.8517 67.0192 17.8165 66.9997 16.586C66.9801 15.336 66.6481 14.6134 65.6715 13.6759C65.2809 13.3048 64.9684 12.8751 64.9684 12.7189C64.9684 12.5821 65.32 11.879 65.7692 11.1564C66.4137 10.0821 66.5309 9.73057 66.4528 9.16417C66.3942 8.79307 66.1598 8.32432 65.9254 8.12901C65.4762 7.75792 64.4801 7.69932 63.9528 7.99229Z" fill="#915C46"/>
<path d="M46.1207 23.0509C41.4528 23.6564 35.1246 25.9024 29.734 28.9103C26.9411 30.4532 22.5465 33.3634 20.4371 35.0821C17.3512 37.5431 13.8356 41.2735 11.5895 44.4571C7.97621 49.5743 5.45668 56.3907 5.08559 62.1329C5.00746 63.129 4.87074 64.0665 4.75356 64.1837C4.6559 64.3204 4.14809 64.4376 3.64027 64.4376C2.56606 64.4376 1.64809 64.965 0.964493 65.9806C0.222305 67.0743 0.359024 68.0118 1.78481 71.9767C3.17152 75.7267 3.64027 76.6251 4.67543 77.4063C5.9059 78.3438 6.72621 78.5001 10.4762 78.5001H13.9528L15.4957 81.1759C17.195 84.1446 17.9567 85.0431 19.3825 85.7462L20.3395 86.2149L47.6246 86.2735C74.7926 86.3126 74.9098 86.3126 75.984 85.9024C77.5465 85.336 78.5231 84.2618 80.2809 81.1759L81.8043 78.5001H84.3825C87.3317 78.5001 88.0739 78.3438 89.2067 77.4649C90.4567 76.5079 90.6715 76.1173 92.1364 72.1524C93.6598 68.0118 93.7965 67.0939 93.0348 65.9806C92.1559 64.672 91.5504 64.4376 89.0114 64.4376C86.1207 64.4181 86.0817 64.3985 85.5934 61.8985C83.8356 53.0314 80.1442 47.504 73.5621 43.8907L72.9567 43.5392L73.445 42.8946C73.7184 42.5235 73.9528 42.1329 73.9528 42.0157C73.9528 41.8985 74.0309 41.7618 74.109 41.7032C74.3239 41.586 82.7028 39.2423 82.9567 39.2423C83.0739 39.2423 83.3278 39.4376 83.5231 39.6915C83.7184 39.9454 84.3434 40.3946 84.9293 40.7071C85.7692 41.1759 86.1989 41.2735 87.234 41.2735C90.0661 41.254 92.0582 39.4181 92.2731 36.6446C92.3903 35.004 92.0192 33.8712 90.9645 32.7774C90.0856 31.879 90.0661 31.8399 90.3004 31.1954C90.6325 30.297 90.6129 28.9298 90.2614 27.8946C89.5582 25.8634 87.7223 24.5939 85.4762 24.5939C83.0934 24.5939 81.3161 25.9415 80.5934 28.2462L80.2614 29.3399L75.8082 30.5704L71.3746 31.8009L70.8278 31.4103C70.1832 30.922 68.8551 30.7267 67.9176 30.9806C67.234 31.1564 67.2145 31.1368 64.9879 28.8907C61.6286 25.5509 58.5231 23.9103 54.0504 23.1485C52.0582 22.8165 48.4059 22.7774 46.1207 23.0509ZM54.8121 26.7423C56.8629 27.2501 59.2067 28.3634 60.8668 29.6329C62.4293 30.8243 63.5231 31.9571 63.3278 32.1524C63.2496 32.2501 62.1168 32.3087 60.8082 32.3087C58.5621 32.2892 58.3082 32.2501 56.3746 31.547C51.6676 29.8673 47.0973 30.629 43.7575 33.6564C41.3551 35.8243 40.0075 38.6759 39.8317 41.9767C39.6364 45.4923 40.7692 48.461 43.2887 50.961C46.9801 54.672 52.2731 55.5118 57.1559 53.1681C58.4254 52.5626 58.9918 52.0939 61.3551 49.6915C64.3434 46.6642 65.5153 45.8634 68.0543 45.1017L69.4996 44.672L70.4176 45.629C70.9059 46.1564 71.9801 46.9376 72.7809 47.3868C76.0621 49.2032 78.6989 52.2501 80.3786 56.2345C80.7106 57.0157 80.984 57.7189 80.984 57.8165C80.984 57.9142 80.3395 57.9923 79.5387 57.9923C78.3668 57.9923 77.9176 58.0899 77.0387 58.5392L75.9645 59.0665L75.0465 58.5978C74.5582 58.3439 73.6793 58.0899 73.1325 58.0314C72.234 57.9532 72.0192 57.836 71.1793 56.9767C69.8317 55.5899 68.777 55.1603 66.7262 55.1603C64.6754 55.1603 63.6207 55.5899 62.234 57.0157C61.2965 57.9728 61.2575 57.9923 60.1246 57.9923C58.8746 57.9923 57.6246 58.3439 56.8239 58.9298L56.3161 59.3009L55.652 58.5587C54.2653 57.0353 51.5504 56.2735 49.4215 56.8009C48.2692 57.0939 46.5895 58.1876 46.0231 59.0274L45.5739 59.672L44.4801 58.5782C41.902 55.9806 38.0739 55.9415 35.5153 58.4806C34.9489 59.047 34.4411 59.4181 34.3825 59.3399C34.07 58.8126 32.1754 58.129 30.8082 58.0314C29.4215 57.9337 29.3629 57.9142 28.6012 57.0939C27.4293 55.8243 26.0426 55.2189 24.2653 55.1993C22.9957 55.1993 22.6246 55.2774 21.5114 55.8243C20.7496 56.1954 20.0075 56.7618 19.6364 57.1915C19.109 57.8556 18.9137 57.9532 17.9762 58.0509C17.3903 58.1095 16.5309 58.3634 16.0817 58.6173L15.2614 59.086L14.3043 58.5978C13.0739 57.9728 11.0817 57.8165 9.79262 58.2462L8.91371 58.5587L9.0309 58.0314C9.08949 57.7384 9.48012 56.4884 9.89027 55.2384C13.2887 44.9259 22.3707 35.8634 35.1832 30.004C39.2848 28.129 43.8746 26.7618 47.7809 26.2735C49.2848 26.0978 53.1911 26.3517 54.8121 26.7423ZM86.6676 28.4806C87.6051 29.4181 87.3121 30.5314 85.9645 31.2931C84.6168 32.0548 84.3434 33.2267 85.2809 34.1642C85.5934 34.4767 85.945 34.5548 86.8434 34.5548C87.8395 34.5548 88.1129 34.6329 88.5036 35.0431C89.5387 36.0782 88.7965 37.9532 87.3707 37.9532C86.6286 37.9532 85.6715 37.2696 85.6715 36.7618C85.6715 36.2735 84.734 35.5314 84.1286 35.5314C83.7965 35.5314 81.3356 36.1368 78.6598 36.8985C75.9645 37.6407 73.7379 38.2657 73.6989 38.2657C73.5036 38.2657 72.7614 35.0821 72.9176 34.9454C72.9957 34.8673 75.2614 34.1837 77.9567 33.461C81.1403 32.5821 82.9957 31.9767 83.3082 31.7032C83.7184 31.3517 83.777 31.1368 83.7575 30.1603C83.7379 29.1642 83.7965 28.9884 84.3043 28.4806C85.0661 27.7189 85.9059 27.7189 86.6676 28.4806ZM55.6911 34.8478C57.527 35.4728 58.152 35.6095 60.0075 35.6876C62.4293 35.7853 63.8356 35.5899 66.902 34.7501C68.0348 34.4376 68.9723 34.2032 68.9918 34.2228C69.1871 34.4181 70.7887 40.7071 70.6715 40.8243C70.5934 40.8829 69.4215 41.254 68.0543 41.6446C63.7575 42.8556 61.9215 44.0274 58.777 47.5626C57.1364 49.3985 55.9254 50.2579 54.2067 50.7853C51.1207 51.7423 47.859 50.8439 45.5348 48.4024C42.3512 45.0626 42.3317 40.2384 45.4762 36.8009C48.1129 33.9298 51.2575 33.3243 55.6911 34.8478ZM25.6129 58.9298C25.945 59.1251 26.3942 59.6524 26.6286 60.1212C26.8629 60.5899 27.2145 61.1368 27.4098 61.3517C27.7614 61.7423 27.9762 61.7423 30.3004 61.4103C30.8668 61.3321 31.277 61.3907 31.7653 61.6642C32.5075 62.0743 33.3278 63.2853 33.3278 63.9884V64.4376H21.0231C7.21449 64.4376 8.32777 64.5743 9.10902 62.9923C9.61684 61.9767 10.3004 61.4884 11.3551 61.3712C12.2926 61.254 13.0348 61.5665 13.8746 62.4649C14.7145 63.3439 15.7106 63.3048 16.6481 62.3673C17.5661 61.4689 18.1715 61.254 19.402 61.4103C20.6325 61.5665 21.1012 61.3517 21.5895 60.3751C22.527 58.5587 23.9918 58.0314 25.6129 58.9298ZM68.3473 58.8907C68.6207 59.086 69.07 59.672 69.3434 60.1603C69.9293 61.2345 70.5348 61.547 71.6871 61.3907C72.8981 61.2149 73.4645 61.4103 74.4411 62.3087C75.6715 63.4415 76.3746 63.422 77.6637 62.211C78.5231 61.4103 78.7184 61.3126 79.5582 61.3126C81.1207 61.3126 82.5465 62.5431 82.5465 63.8907V64.4376H69.9489C57.3903 64.4376 57.3512 64.4376 57.3512 64.047C57.3512 63.3634 58.1129 62.0939 58.777 61.6837C59.4215 61.2735 59.6168 61.2735 62.3512 61.6251C63.2301 61.7423 63.3864 61.6251 64.1871 60.1603C64.8707 58.9103 65.7887 58.3243 66.9411 58.422C67.4293 58.4806 68.0739 58.6759 68.3473 58.8907ZM41.0817 60.1603C41.8825 60.4532 42.4489 61.0782 42.82 62.0353C43.0934 62.7384 43.1129 63.0118 42.9176 63.6564L42.6832 64.4376H37.2731L37.0387 63.7345C36.7457 62.8946 36.9996 61.879 37.6637 61.0196C38.4059 60.0626 39.8707 59.6915 41.0817 60.1603ZM52.5075 60.3751C53.7965 61.0978 54.3825 62.6017 53.9332 64.0079C53.8161 64.4181 53.6989 64.4376 51.0817 64.4376H48.3668L48.152 63.8907C47.8786 63.1876 48.0543 61.9571 48.5231 61.3321C49.5387 59.9454 51.0817 59.5743 52.5075 60.3751ZM90.1637 67.6603C90.1637 67.8556 88.0348 73.6173 87.7614 74.1446C87.1168 75.3556 90.0075 75.2774 47.4098 75.336C19.8512 75.3556 8.24965 75.3165 7.68324 75.1603C7.25355 75.0431 6.72621 74.7501 6.51137 74.5157C6.2184 74.1837 4.6559 70.2384 3.91371 67.8946C3.81606 67.5821 5.94496 67.5626 46.9801 67.5626C70.7301 67.5626 90.1637 67.6017 90.1637 67.6603ZM77.2731 79.6134C76.1793 81.547 75.6325 82.2696 74.9293 82.6798C74.2457 83.0899 74.1286 83.0899 47.8786 83.0899C21.6286 83.0899 21.5114 83.0899 20.8278 82.6798C20.1246 82.2696 19.6168 81.6056 18.5036 79.6134L17.8786 78.5001H77.8981L77.2731 79.6134Z" fill="#915C46"/>
</svg>
