<svg width="26" height="26" viewBox="0 0 26 26" fill="none" xmlns="http://www.w3.org/2000/svg">
<path d="M24.48 0.301741C24.3156 0.347815 21.5813 1.563 18.4038 3.00278C15.2263 4.44257 10.0167 6.80958 6.82422 8.25513C3.63174 9.70068 0.932324 10.9447 0.817773 11.0195C0.708203 11.0944 0.533887 11.2614 0.434277 11.3881C0.274902 11.5954 0.25 11.6588 0.25 11.9122C0.25 12.4075 0.499023 12.7991 0.987109 13.0871C1.07676 13.1447 2.4165 13.6803 3.96543 14.2792L6.77939 15.3734L14.011 10.0635C17.9904 7.13786 21.3473 4.70173 21.4718 4.63838C21.7905 4.48289 21.9648 4.53472 21.9648 4.78236C21.9648 4.93786 21.9001 5.04152 21.5465 5.42739C21.3174 5.68655 18.6728 8.44518 15.6745 11.5666C10.5895 16.8535 10.2259 17.2452 10.3006 17.3316C10.5895 17.6598 19.634 25.5902 19.7983 25.6593C20.0723 25.7802 20.6948 25.7802 20.9289 25.6593C21.1829 25.5326 21.5813 25.0891 21.681 24.83C21.7905 24.5363 25.75 1.4075 25.75 1.06195C25.75 0.745195 25.6454 0.509069 25.4512 0.37661C25.2569 0.244148 24.8286 0.209595 24.48 0.301741Z" fill="#080808"/>
</svg>
