<svg width="24" height="14" viewBox="0 0 24 14" fill="none" xmlns="http://www.w3.org/2000/svg">
<path d="M8.7341 0.598629C8.4466 0.742378 8.12316 1.07929 8.14562 1.21855C8.15461 1.29941 8.22199 1.33535 8.47804 1.4207C9.03957 1.59589 9.34054 1.96425 9.43937 2.57519C9.57863 3.44218 9.56964 5.24804 9.4214 5.95332C9.19679 7.04492 8.64425 7.0539 7.82218 5.96679C7.07648 4.983 6.19152 3.40625 5.55363 1.9373C5.30656 1.36679 5.15382 1.15566 4.88879 1.0164C4.7091 0.926558 4.64621 0.922066 2.85382 0.926558C0.895231 0.926558 0.778435 0.935543 0.589763 1.13769C0.504411 1.23203 0.490935 1.28144 0.508903 1.50605C0.526872 1.72168 0.6257 1.96875 1.07941 2.93457C2.09465 5.09082 3.04699 6.8248 4.0173 8.28027C5.60754 10.6611 6.88332 11.9144 8.51847 12.7051C9.7673 13.307 10.9128 13.5361 12.521 13.5092C13.2532 13.4912 13.3431 13.4822 13.5362 13.3879C13.8372 13.2396 13.9181 13.0465 13.9765 12.3592C14.0349 11.7033 14.1112 11.3844 14.3044 10.998C14.5335 10.5353 14.8659 10.3916 15.2702 10.5803C15.4499 10.6611 16.0339 11.2316 16.9818 12.2469C17.6196 12.9342 17.9566 13.1947 18.4237 13.3789L18.7157 13.4912L20.8136 13.5047C23.1405 13.5182 23.1181 13.5227 23.3427 13.2262C23.4954 13.024 23.5403 12.6377 23.4415 12.3547C23.2349 11.7662 22.57 10.9531 21.137 9.53808C19.8208 8.23984 19.7355 8.12754 19.7894 7.70527C19.8253 7.3998 19.9376 7.22461 21.1325 5.6164C21.6985 4.85722 22.314 4.00371 22.5071 3.7207C23.1585 2.75937 23.4999 2.00468 23.4999 1.5375C23.4999 1.32187 23.4819 1.26796 23.3741 1.16015C23.136 0.926558 23.0327 0.913082 20.7148 0.913082C18.7068 0.913082 18.572 0.917574 18.4103 0.998433C18.1902 1.10625 18.0734 1.28593 17.8173 1.92382C17.1569 3.54101 16.2136 5.16269 15.3691 6.133C14.7716 6.82031 14.556 6.90117 14.246 6.56425C13.936 6.23632 13.9316 6.18691 13.9316 3.70273C13.9316 1.33984 13.9091 1.08828 13.698 0.791793C13.6486 0.715425 13.5228 0.616597 13.4194 0.571675C13.2487 0.495308 13.087 0.486324 11.097 0.486324H8.9632L8.7341 0.598629Z" fill="white" fill-opacity="0.7"/>
</svg>
