<svg width="26" height="26" viewBox="0 0 26 26" fill="none" xmlns="http://www.w3.org/2000/svg">
<path d="M11.74 0.260519C9.36721 0.514765 7.19385 1.37222 5.25478 2.82292C4.62171 3.29651 3.32069 4.59766 2.84714 5.23078C1.5511 6.96065 0.753532 8.81017 0.394629 10.9139C0.26004 11.6916 0.210193 13.4863 0.299918 14.2989C0.529218 16.4326 1.22709 18.3618 2.39352 20.0917L2.65273 20.4756L1.85018 22.8485C1.41152 24.1547 1.0576 25.2265 1.06259 25.2315C1.06757 25.2414 2.14927 24.9024 3.46525 24.4787C4.78123 24.055 5.9028 23.706 5.95265 23.706C6.00249 23.706 6.16201 23.7758 6.30158 23.8655C7.89671 24.8626 9.74107 25.4907 11.7001 25.7001C12.5126 25.7898 14.3071 25.74 15.0847 25.6054C17.1883 25.2464 19.0426 24.4488 20.7674 23.1526C21.4004 22.679 22.7015 21.3779 23.175 20.7448C24.491 18.985 25.2935 17.0956 25.6574 14.9071C25.787 14.1194 25.787 11.8561 25.6574 11.0685C25.2935 8.87996 24.491 6.99056 23.175 5.23078C22.7015 4.59766 21.4004 3.29651 20.7674 2.82292C19.0426 1.53175 17.1983 0.734114 15.0847 0.370193C14.6012 0.285444 14.2274 0.260519 13.2105 0.250547C12.5126 0.240578 11.8496 0.245562 11.74 0.260519ZM8.99834 6.17797C9.12794 6.23281 9.20271 6.32254 9.31736 6.55186C9.60648 7.12018 10.6682 9.73243 10.6682 9.87202C10.6682 10.1063 10.4738 10.4154 9.99031 10.9688C9.73608 11.2529 9.5018 11.5371 9.47189 11.5869C9.3373 11.8412 9.46691 12.1802 9.96538 12.8881C11.057 14.4385 12.3032 15.5253 13.8734 16.278C15.1196 16.8812 15.2742 16.8413 16.0767 15.7296C16.6549 14.927 16.8842 14.7376 17.2182 14.8124C17.5572 14.8871 20.4633 16.3029 20.5879 16.4575C20.7674 16.6719 20.6079 17.8484 20.3187 18.4117C19.905 19.2293 18.6239 19.982 17.4575 20.0917C16.2462 20.2114 13.36 19.2043 11.6502 18.0677C9.92052 16.9161 8.14096 15.0317 6.75519 12.8931C6.05733 11.8162 5.63362 10.5699 5.63362 9.59783C5.63362 8.55093 5.95763 7.66356 6.63057 6.87091C6.93963 6.49702 7.22875 6.29263 7.59263 6.18295C7.88175 6.08824 8.77901 6.08824 8.99834 6.17797Z" fill="#080808"/>
</svg>
