<svg width="20" height="20" viewBox="0 0 20 20" fill="none" xmlns="http://www.w3.org/2000/svg">
<path d="M9.00374 0.0273457C7.14437 0.226564 5.44124 0.898439 3.92171 2.03516C3.42562 2.40625 2.40609 3.42578 2.03499 3.92188C1.01937 5.27735 0.39437 6.72656 0.11312 8.375C0.00765079 8.98438 -0.0314117 10.3906 0.0389008 11.0273C0.218588 12.6992 0.765463 14.2109 1.67953 15.5664L1.88265 15.8672L1.25374 17.7266C0.909995 18.75 0.632651 19.5898 0.636557 19.5938C0.640463 19.6016 1.48812 19.3359 2.51937 19.0039C3.55062 18.6719 4.42953 18.3984 4.46859 18.3984C4.50765 18.3984 4.63265 18.4531 4.74203 18.5234C5.99203 19.3047 7.43734 19.7969 8.97249 19.9609C9.60921 20.0313 11.0155 19.9922 11.6248 19.8867C13.2733 19.6055 14.7264 18.9805 16.078 17.9648C16.5741 17.5938 17.5936 16.5742 17.9647 16.0781C18.9959 14.6992 19.6248 13.2188 19.91 11.5039C20.0116 10.8867 20.0116 9.11328 19.91 8.4961C19.6248 6.78125 18.9959 5.30078 17.9647 3.92188C17.5936 3.42578 16.5741 2.40625 16.078 2.03516C14.7264 1.02344 13.2811 0.398439 11.6248 0.113283C11.2459 0.0468769 10.953 0.0273457 10.1561 0.0195332C9.60921 0.0117207 9.08968 0.0156269 9.00374 0.0273457ZM6.85531 4.66406C6.95687 4.70703 7.01546 4.77735 7.10531 4.95703C7.33187 5.40235 8.1639 7.44922 8.1639 7.5586C8.1639 7.74219 8.01156 7.98438 7.63265 8.41797C7.43343 8.64063 7.24984 8.86328 7.2264 8.90235C7.12093 9.10156 7.22249 9.36719 7.61312 9.92188C8.46859 11.1367 9.44515 11.9883 10.6756 12.5781C11.6522 13.0508 11.7733 13.0195 12.4022 12.1484C12.8553 11.5195 13.035 11.3711 13.2967 11.4297C13.5623 11.4883 15.8397 12.5977 15.9373 12.7188C16.078 12.8867 15.953 13.8086 15.7264 14.25C15.4022 14.8906 14.3983 15.4805 13.4842 15.5664C12.535 15.6602 10.2733 14.8711 8.93343 13.9805C7.57796 13.0781 6.18343 11.6016 5.09749 9.92578C4.55062 9.08203 4.21859 8.10547 4.21859 7.34375C4.21859 6.52344 4.47249 5.82813 4.99984 5.20703C5.24203 4.91406 5.46859 4.75391 5.75374 4.66797C5.98031 4.59375 6.68343 4.59375 6.85531 4.66406Z" fill="white" fill-opacity="0.7"/>
</svg>
